<svg id="Layer_1" data-name="Layer 1" xmlns="http://www.w3.org/2000/svg" viewBox="0 0 363 168"><defs><style>.cls-1{fill:#707070;}.cls-2{fill:#707070;}</style></defs><path class="cls-1" d="M156.46,89.8l-16.54,44.6-1.77-9.06c-4.11-11.12-13-22.77-23.42-27.5l15.13,57.27h17.89l26.6-65.31Z"/><polygon class="cls-1" points="170.63 155.18 181.21 89.73 198.11 89.73 187.53 155.18 170.63 155.18 170.63 155.18"/><path class="cls-1" d="M248.83,91.35a41.74,41.74,0,0,0-15.15-2.76c-16.71,0-28.46,8.89-28.56,21.6-.11,9.41,8.4,14.66,14.79,17.79,6.6,3.2,8.8,5.25,8.78,8.12-.06,4.38-5.27,6.38-10.12,6.38a33.92,33.92,0,0,1-15.89-3.42l-2.2-1.05-2.36,14.65c3.95,1.82,11.25,3.4,18.83,3.49,17.75,0,29.29-8.79,29.42-22.35.07-7.47-4.44-13.12-14.2-17.79-5.89-3-9.53-5-9.48-8.12,0-2.71,3.06-5.62,9.69-5.62A29.38,29.38,0,0,1,245,104.78l1.51.75,2.3-14.18Z"/><path class="cls-1" d="M292.17,89.8H279.11c-4.05,0-7.08,1.15-8.87,5.43l-25.08,60h17.75s2.9-8.07,3.56-9.84l21.63,0c.52,2.28,2.06,9.8,2.06,9.8h15.69L292.17,89.8ZM271.33,132c1.4-3.75,6.73-18.29,6.73-18.29-.1.18,1.38-3.78,2.25-6.24l1.12,5.65L285.36,132Z"/><path class="cls-2" d="M124.58,89.76H97.32l-.16,1.13c21.19,5.42,35.17,18.73,41,34.46l-5.92-30.07c-1-4.14-4-5.37-7.65-5.52Z"/><polygon class="cls-1" points="46.21 73.95 35.43 73.95 23 17.92 34.91 15.93 43.41 59.78 65.08 16.51 76.52 16.51 46.21 73.95 46.21 73.95"/><path class="cls-1" d="M102.24,55.63H76.55c-.71,7.79,2.91,11.19,9,11.19,5.14,0,9.66-1.91,14.53-5l0,7.79a31,31,0,0,1-16.75,4.89c-11.19,0-18.58-6.38-16.36-20.81,2-13,11-20.88,21.45-20.88,12,0,16,9,14.27,20.39-.13.83-.37,1.82-.46,2.4ZM87.12,39.72c-4,0-7.7,3.15-9.45,9.7H93.58c.3-6.22-1.65-9.7-6.46-9.7Z"/><path class="cls-1" d="M119,50.74l-3.53,23h-9.95l6.16-40h8.46v8.05c3.37-4.65,8-8.54,14.22-8.87l.05,9.86a22.1,22.1,0,0,0-15.41,8Z"/><path class="cls-1" d="M134.27,73.7l6.17-40h9.94l-6.16,40ZM146.53,27c-3.32,0-5.61-2.32-5.1-5.63a6.94,6.94,0,0,1,6.86-5.81,4.81,4.81,0,0,1,5,5.81A6.81,6.81,0,0,1,146.53,27Z"/><path class="cls-1" d="M177.93,22.72c-3.4,0-5.45,1.5-6,5.06L171,33.66h7.63v8.13h-8.87L164.86,73.7H155l4.91-31.91h-5.8l1.25-8.13h5.8l1.06-6.87c1.36-8.87,7.51-12.19,15.72-12.19a23.8,23.8,0,0,1,4,.33l.07,8.13a24.45,24.45,0,0,0-4.09-.34Z"/><path class="cls-1" d="M178,73.7l6.16-40h10L188,73.7ZM190.29,27c-3.31,0-5.61-2.32-5.1-5.63a7,7,0,0,1,6.86-5.81,4.81,4.81,0,0,1,5,5.81A6.81,6.81,0,0,1,190.29,27Z"/><path class="cls-1" d="M232.71,55.63H207c-.7,7.79,2.92,11.19,9.06,11.19,5.14,0,9.66-1.91,14.52-5l0,7.79a31,31,0,0,1-16.75,4.89c-11.19,0-18.58-6.38-16.36-20.81,2-13,11-20.88,21.45-20.88,12,0,16,9,14.27,20.39-.12.83-.36,1.82-.45,2.4ZM217.59,39.72c-4,0-7.7,3.15-9.45,9.7h15.91c.29-6.22-1.66-9.7-6.46-9.7Z"/><path class="cls-1" d="M262.17,73.7l0-5.55c-3.34,3.4-7.7,6.38-13.25,6.38-8.37,0-14.13-6.22-12-19.73,2.3-14.92,11.52-21.55,20.81-21.55a26.14,26.14,0,0,1,9.05,1.49l3-19.31,10.19-1.58L270.71,73.7ZM265.5,43A14.65,14.65,0,0,0,258,41.21c-5.22,0-9.68,4.23-11,13-1.2,7.79,1.55,11.44,5.94,11.44,3.65,0,6.8-2.15,10-5.47L265.5,43Z"/><path class="cls-1" d="M301.18,74.08a35.64,35.64,0,0,1-12.12-2l6.54-42.51,7.72-1.19-2.83,18.4c2.26-2,5.39-4,9.22-4,6.41,0,10.69,4.77,9.13,14.94-1.72,11.18-8.62,16.39-17.66,16.39Zm5.56-24.68c-2.51,0-5,1.7-7.26,4l-2.12,13.75a11.21,11.21,0,0,0,4.65.81c4.77,0,8.1-2.88,9.16-9.79.9-5.84-1-8.73-4.43-8.73Z"/><path class="cls-1" d="M336.59,75.33c-3.85,7.47-7.66,9.8-13.5,9.8a9.1,9.1,0,0,1-2.71-.32l-.05-6.21a12.94,12.94,0,0,0,3.45.44,6,6,0,0,0,5.39-3.2l1-2-6.39-29.89,8-1,3.71,21.59,10-21.15H353L336.59,75.33Z"/></svg>