<svg id="Layer_1" data-name="Layer 1" xmlns="http://www.w3.org/2000/svg" xmlns:xlink="http://www.w3.org/1999/xlink" viewBox="0 0 744.55 180.61"><defs><style>.cls-1{fill:#707070;}.cls-2{fill:#707070;}.cls-3{fill:#707070;}.cls-4{fill:#707070;}.cls-5{fill:#707070;}.cls-6{fill:#707070;}.cls-7{fill:#707070;}</style><linearGradient id="linear-gradient" x1="193.97" y1="267.49" x2="688.42" y2="302.71" gradientUnits="userSpaceOnUse"><stop offset="0.01" stop-color="#b41f1c"/><stop offset="0.07" stop-color="#ae252c"/><stop offset="0.18" stop-color="#9d3555"/><stop offset="0.34" stop-color="#814f97"/><stop offset="0.34" stop-color="#814f98"/><stop offset="0.65" stop-color="#283374"/><stop offset="0.75" stop-color="#376394"/><stop offset="0.86" stop-color="#4795b6"/><stop offset="0.95" stop-color="#51b4cb"/><stop offset="0.99" stop-color="#55c0d3"/></linearGradient><linearGradient id="linear-gradient-2" x1="194.66" y1="258.71" x2="689.19" y2="293.94" xlink:href="#linear-gradient"/><linearGradient id="linear-gradient-3" x1="195.28" y1="248.58" x2="690.01" y2="283.83" xlink:href="#linear-gradient"/></defs><title>DPO South Africa</title><path class="cls-1" d="M205.74,348.52h-8.85v-3.47h21.87v3.47h-8.89v28.91h-4.13Z" transform="translate(-47.08 -207.33)"/><path class="cls-1" d="M225.45,343.57h4.13v13.91h.1a7.92,7.92,0,0,1,6.81-3.77c3.13,0,7.44,2,7.44,9.41v14.31H239.8V363.57c0-3.48-1.21-6.48-4.8-6.48a5.49,5.49,0,0,0-5.17,4.06,6.45,6.45,0,0,0-.25,1.93v14.35h-4.13Z" transform="translate(-47.08 -207.33)"/><path class="cls-1" d="M258.7,347.79a2.47,2.47,0,0,1-2.62,2.56,2.43,2.43,0,0,1-2.46-2.56,2.48,2.48,0,0,1,2.54-2.57A2.45,2.45,0,0,1,258.7,347.79Zm-4.6,29.64V354.19h4.13v23.24Z" transform="translate(-47.08 -207.33)"/><path class="cls-1" d="M268.49,360.38c0-2.51-.09-4.28-.19-6.19H272l.23,3.51h.11a8,8,0,0,1,7.11-4c3.27,0,7.57,2.05,7.57,9.33v14.39h-4.13V363.56c0-3.46-1.17-6.49-4.82-6.49a5.43,5.43,0,0,0-5.13,4.17,7,7,0,0,0-.26,2v14.19h-4.14Z" transform="translate(-47.08 -207.33)"/><path class="cls-1" d="M301.25,364.89h.1c.53-.85,1.23-1.84,1.83-2.64l6.3-8.06h4.84L306,363.81l9.35,13.62h-4.94l-7.25-11.1-1.95,2.34v8.76h-4.12V343.57h4.12Z" transform="translate(-47.08 -207.33)"/><path class="cls-1" d="M334.81,345.49a53.44,53.44,0,0,1,9.08-.66c4.35,0,7.57.77,9.76,2.58a9.25,9.25,0,0,1,3.3,7.37,10.27,10.27,0,0,1-2.95,7.7c-2.4,2.29-6.06,3.34-9.91,3.34a19.15,19.15,0,0,1-2.18-.12v11.73h-7.1Zm7.1,14.7a10.45,10.45,0,0,0,2.06.15c3.75,0,5.89-2,5.89-5.26,0-2.93-1.81-4.84-5.33-4.84a11.39,11.39,0,0,0-2.62.24Z" transform="translate(-47.08 -207.33)"/><path class="cls-1" d="M376.7,377.43l-.41-2.33h-.14a8,8,0,0,1-6.39,2.81,7,7,0,0,1-7.32-7.17c0-6.15,5.57-8.94,13.14-8.94v-.37c0-1.43-.81-3.09-4.09-3.08A12.46,12.46,0,0,0,365.4,360l-1.31-4.55a18.63,18.63,0,0,1,8.76-2c7.78,0,9.9,4.74,9.9,10v8.37a32.7,32.7,0,0,0,.38,5.6Zm-.91-11.22c-3.38,0-6.39.86-6.39,3.8a2.64,2.64,0,0,0,2.77,2.92,3.64,3.64,0,0,0,3.48-2.49,3.91,3.91,0,0,0,.14-1.2Z" transform="translate(-47.08 -207.33)"/><path class="cls-1" d="M396.66,353.91l3.22,11.77c.36,1.38.75,3,1,4.24h.14c.28-1.25.61-2.88.91-4.23l2.67-11.78h7.45l-5.36,16.28c-2.76,7.86-4.84,11.84-7.51,14.39a12.83,12.83,0,0,1-6.66,3.36l-1.7-5.94a10.81,10.81,0,0,0,3.22-1.46,8.58,8.58,0,0,0,2.76-2.89,2.14,2.14,0,0,0,.38-1,2.65,2.65,0,0,0-.28-1.11l-8.13-21.59Z" transform="translate(-47.08 -207.33)"/><path class="cls-1" d="M418.62,361.29c0-2.82-.1-5.23-.2-7.38h6.09l.32,3.06H425a8,8,0,0,1,6.78-3.54,6.28,6.28,0,0,1,6.16,3.79h.1a9.44,9.44,0,0,1,2.92-2.73,8.1,8.1,0,0,1,4.19-1.06c4.49,0,7.51,3.22,7.51,9.84v14.16h-7v-13.1c0-3.18-.87-5.22-3.14-5.22a3.31,3.31,0,0,0-3.12,2.43,6.21,6.21,0,0,0-.25,1.8v14.09h-7V363.78c0-2.58-.81-4.67-3.08-4.67a3.46,3.46,0,0,0-3.17,2.48,5.62,5.62,0,0,0-.27,1.83v14h-7Z" transform="translate(-47.08 -207.33)"/><path class="cls-1" d="M467.4,368c.17,3.22,3,4.64,6.25,4.64a18.41,18.41,0,0,0,6-.94l1,4.81a22.12,22.12,0,0,1-8.06,1.37c-7.64,0-12-4.52-12-11.85,0-6.56,3.92-12.59,11.34-12.59,7,0,9.95,5.34,9.95,11.55a15.82,15.82,0,0,1-.24,3Zm7.84-4.83c0-2.14-.8-5-3.74-5s-4,2.88-4.14,5Z" transform="translate(-47.08 -207.33)"/><path class="cls-1" d="M489.67,361.29c0-2.82-.1-5.23-.2-7.38h6.19L496,357h.14a8.19,8.19,0,0,1,6.93-3.58c4.8,0,7.93,3.31,7.93,9.73v14.27h-7.16V363.89c0-2.72-.92-4.74-3.36-4.74a3.58,3.58,0,0,0-3.37,2.57,5.5,5.5,0,0,0-.29,1.92v13.79h-7.15Z" transform="translate(-47.08 -207.33)"/><path class="cls-1" d="M528,347.32v6.59h5.16V359H528v9.18c0,2.81.85,3.93,2.78,3.93a10,10,0,0,0,2.06-.2l.06,5.36a15.54,15.54,0,0,1-4.56.57A7.51,7.51,0,0,1,523,376c-1.36-1.34-2-3.45-2-6.9V359h-3.08v-5.12h3.08v-5Z" transform="translate(-47.08 -207.33)"/><path class="cls-1" d="M540.61,371.27a13,13,0,0,0,5.77,1.6c2.07,0,3-.74,3-2s-.74-1.86-3.3-2.86c-4.66-1.77-6.27-4.37-6.24-6.95,0-4.36,3.58-7.64,9.19-7.64a14.58,14.58,0,0,1,6.19,1.29l-1.25,4.9a10.56,10.56,0,0,0-4.64-1.21c-1.76,0-2.72.78-2.72,1.92s.83,1.7,3.56,2.79c4.25,1.65,6,4,6,7.19,0,4.52-3.49,7.56-9.79,7.56a15.14,15.14,0,0,1-7.08-1.57Z" transform="translate(-47.08 -207.33)"/><path d="M162.61,268.66l-18.23-12.18a.47.47,0,0,0-.4,0l-20.42,8-9.35-35.65a.44.44,0,0,0-.14-.22L87.19,207.42a.43.43,0,0,0-.7.32l-.19,25.74-37-24a.44.44,0,0,0-.48,0,.4.4,0,0,0-.17.43L60,255.87a.22.22,0,0,0,0,.11,0,0,0,0,0,0,0l.06.07,31.57,28.72L75.42,309.1l-28,6.22a.41.41,0,0,0-.15.74l21.37,14.77a.4.4,0,0,0,.24.07.37.37,0,0,0,.28-.09L96,309.86a.49.49,0,0,0,.15-.27l33.43-12.44h0a.36.36,0,0,0,.12-.08l0,0s0,0,0,0h0l17.85-24,14.88-3.63a.42.42,0,0,0,.32-.32A.44.44,0,0,0,162.61,268.66ZM87.34,208.61l26.08,20.48,9.34,35.62L116,267.35,105.1,245.72a.38.38,0,0,0-.15-.16L87.15,234Zm42.15,87.33-7.22-16.09-5.76-11.44L146.58,273ZM95.06,309.1l-18.6-.05L92.4,285.22l35.74,11.57Zm20-40.6h.26l.19-.07,5.94,11.79,7.12,15.88L92.45,284.36l-30.6-27.84Zm-10.72-22.31,10.8,21.47h0L60.75,255.43l-11-44.66ZM68.87,330,48.53,315.92l27.2-6,18.79,0Zm78.45-57.72-29.95-4.55,26.72-10.41,17.26,11.54Z" transform="translate(-47.08 -207.33)"/><polygon class="cls-2" points="100.51 65.7 69.43 61.08 68.9 60.02 96.9 49.11 115.53 61.33 115.39 62.07 100.51 65.7"/><polygon class="cls-1" points="82.66 89.67 100.51 65.7 68.48 61.07 81.54 88.75 82.66 89.67"/><polygon class="cls-1" points="76.48 57.07 66.98 21.2 40.11 0.09 39.11 0.09 39.22 26.15 57.87 37.69 68.9 60.02 76.48 57.07"/><polygon class="cls-2" points="69.43 61.08 57.87 37.69 1.71 2.17 12.9 48.53 69.43 61.08"/><polygon class="cls-3" points="81.54 88.75 68.48 61.07 13.52 49.19 45.37 77.03 81.54 88.75"/><polygon class="cls-1" points="29.38 101.72 45.32 77.89 81.06 89.46 48.16 101.77 29.38 101.72"/><polygon class="cls-2" points="0.18 108.73 29.38 101.72 48.16 101.77 21.55 123.49 0.18 108.73"/><path class="cls-4" d="M199.39,319V221H257.3a53,53,0,0,1,19.54,3.51,44.4,44.4,0,0,1,25.52,25A50.64,50.64,0,0,1,306,269a53.24,53.24,0,0,1-3.64,19.83,48.16,48.16,0,0,1-10.11,15.85,47.3,47.3,0,0,1-15.41,10.52A49,49,0,0,1,257.3,319Zm57.91-17.13a31.49,31.49,0,0,0,12.45-2.43,30.34,30.34,0,0,0,9.91-6.68,29.93,29.93,0,0,0,6.53-10.18,34.64,34.64,0,0,0,2.34-12.81,34.1,34.1,0,0,0-2.34-12.75,29.33,29.33,0,0,0-6.53-10,30.16,30.16,0,0,0-9.91-6.55,32.36,32.36,0,0,0-12.45-2.36H216.72v63.8Z" transform="translate(-47.08 -207.33)"/><path class="cls-5" d="M347.28,291.79V275.2h40.17q9.21,0,14.38-5.12T407,256.59q0-8.49-5.15-13.49t-14.38-5h-53V319H317.15V221h70.3a44.88,44.88,0,0,1,15.48,2.5,32.25,32.25,0,0,1,11.49,7,30.09,30.09,0,0,1,7.15,11,44,44,0,0,1,0,29.07,31.87,31.87,0,0,1-7.15,11.26,32.24,32.24,0,0,1-11.49,7.35,42.58,42.58,0,0,1-15.48,2.63Z" transform="translate(-47.08 -207.33)"/><path class="cls-6" d="M483.75,319A47.94,47.94,0,0,1,449,304.68a47.38,47.38,0,0,1-10.18-15.85A53.25,53.25,0,0,1,435.19,269a51.49,51.49,0,0,1,3.65-19.69A43.58,43.58,0,0,1,449,234.13a46,46,0,0,1,15.41-9.71A53.07,53.07,0,0,1,483.75,221h24.36A54.37,54.37,0,0,1,528,224.49a45.27,45.27,0,0,1,15.47,9.85,44,44,0,0,1,10,15.17A51.39,51.39,0,0,1,557.08,269a53.25,53.25,0,0,1-3.65,19.83,47.38,47.38,0,0,1-10.18,15.85,47.88,47.88,0,0,1-15.47,10.52A49.37,49.37,0,0,1,508.11,319Zm24.36-17.13a32.3,32.3,0,0,0,12.65-2.43,29.64,29.64,0,0,0,16.51-16.86,34.64,34.64,0,0,0,2.34-12.81,34.1,34.1,0,0,0-2.34-12.75,29.21,29.21,0,0,0-6.54-10,29.91,29.91,0,0,0-10-6.55,33.2,33.2,0,0,0-12.65-2.36H483.75a32.28,32.28,0,0,0-12.44,2.36,29.35,29.35,0,0,0-9.84,6.55A29.74,29.74,0,0,0,455,257a33.7,33.7,0,0,0-2.35,12.81A34.44,34.44,0,0,0,455,282.62a30.23,30.23,0,0,0,6.46,10.18,29.53,29.53,0,0,0,9.84,6.68,31.4,31.4,0,0,0,12.44,2.43Z" transform="translate(-47.08 -207.33)"/><path class="cls-7" d="M585.91,256.8a22.81,22.81,0,0,0,10.76,2.78c5.21,0,8.11-2.39,8.11-5.95,0-3.3-2.24-5.24-7.92-7.25-7.32-2.58-12-6.4-12-12.68,0-7.11,6.07-12.55,15.71-12.55a23.94,23.94,0,0,1,10.69,2.2l-2,6.41a19,19,0,0,0-8.84-2.07c-5.15,0-7.39,2.71-7.39,5.24,0,3.36,2.57,4.91,8.51,7.18C609.27,243,613,246.77,613,253.05c0,7-5.41,13.07-16.89,13.07-4.69,0-9.57-1.3-12-2.72Z" transform="translate(-47.08 -207.33)"/><path class="cls-7" d="M659.81,243.21c0,14.63-9,23-21.31,23C626,266.18,618,256.8,618,244c0-13.39,8.58-22.84,21.12-22.84C652.16,221.15,659.81,230.79,659.81,243.21Zm-33.19.65c0,8.86,4.55,15.92,12.34,15.92s12.27-7.12,12.27-16.24c0-8.22-4.15-16-12.27-16S626.62,234.87,626.62,243.86Z" transform="translate(-47.08 -207.33)"/><path class="cls-7" d="M674.85,221.86v25.43c0,8.54,3.63,12.49,9.11,12.49,5.87,0,9.37-3.95,9.37-12.49V221.86h8.11v24.91c0,13.46-7.06,19.41-17.75,19.41-10.29,0-17-5.63-17-19.34v-25Z" transform="translate(-47.08 -207.33)"/><path class="cls-7" d="M719.25,228.53H706.58v-6.67h33.59v6.67h-12.8v36.94h-8.12Z" transform="translate(-47.08 -207.33)"/><path class="cls-7" d="M753.5,221.86v17.47h18.8V221.86h8.12v43.61H772.3V246.25H753.5v19.22h-8.12V221.86Z" transform="translate(-47.08 -207.33)"/><path class="cls-7" d="M595,307.19l-3.82,12.36H582.8l14.26-43.61h10.36l14.45,43.61h-8.71l-4-12.36Zm12.74-6-3.5-10.74c-.86-2.66-1.58-5.63-2.24-8.16h-.13c-.66,2.53-1.32,5.57-2.12,8.16l-3.43,10.74Z" transform="translate(-47.08 -207.33)"/><path class="cls-7" d="M628.07,275.94h25.67v6.54H636.18v12h16.37v6.54H636.18v18.5h-8.11Z" transform="translate(-47.08 -207.33)"/><path class="cls-7" d="M661.65,276.52a79.62,79.62,0,0,1,12.27-.9c6.4,0,10.76,1,13.73,3.49a11,11,0,0,1,3.83,8.74,11.66,11.66,0,0,1-8.05,10.93v.2c3.16,1.16,5.08,4.2,6.2,8.41,1.38,5.43,2.57,10.48,3.5,12.16h-8.38c-.66-1.29-1.72-4.85-3-10.29-1.26-5.69-3.37-7.5-8-7.63H669.7v17.92h-8.05Zm8.05,19.29h4.82c5.47,0,8.91-2.85,8.91-7.19,0-4.78-3.44-7-8.72-7a23.29,23.29,0,0,0-5,.39Z" transform="translate(-47.08 -207.33)"/><path class="cls-7" d="M707.31,275.94v43.61h-8.12V275.94Z" transform="translate(-47.08 -207.33)"/><path class="cls-7" d="M748.48,318.26c-1.91,1-6.13,1.94-11.48,1.94-14.12,0-22.7-8.67-22.7-21.94,0-14.36,10.16-23,23.76-23,5.34,0,9.17,1.1,10.82,1.94l-1.78,6.34a22.1,22.1,0,0,0-8.71-1.68c-9,0-15.58,5.57-15.58,16.05,0,9.57,5.74,15.72,15.51,15.72a23.1,23.1,0,0,0,8.84-1.62Z" transform="translate(-47.08 -207.33)"/><path class="cls-7" d="M764.78,307.19,761,319.55h-8.38l14.25-43.61h10.36l14.45,43.61h-8.71l-4-12.36Zm12.73-6L774,290.44c-.85-2.66-1.58-5.63-2.24-8.16h-.13c-.66,2.53-1.32,5.57-2.11,8.16l-3.43,10.74Z" transform="translate(-47.08 -207.33)"/></svg>