<svg id="Layer_1" data-name="Layer 1" xmlns="http://www.w3.org/2000/svg" viewBox="0 0 218 164"><defs><style>.cls-1{fill:#707070;}.cls-2{fill:#707070;}.cls-3{fill:#707070;}.cls-4{fill:#707070;}.cls-5{fill:#707070;}</style></defs><path class="cls-1" d="M193,137.84v.33h.31a.29.29,0,0,0,.17,0,.15.15,0,0,0,.06-.13.14.14,0,0,0-.06-.12.29.29,0,0,0-.17,0Zm.32-.24a.58.58,0,0,1,.37.11.38.38,0,0,1,.13.29.35.35,0,0,1-.11.26.48.48,0,0,1-.29.12l.41.47h-.32l-.38-.46H193v.46h-.26V137.6Zm-.08,1.69a.9.9,0,0,0,.4-.09,1,1,0,0,0,.33-.22,1.13,1.13,0,0,0,.23-.34,1.07,1.07,0,0,0,.08-.41,1.15,1.15,0,0,0-.08-.41,1.09,1.09,0,0,0-.23-.33,1,1,0,0,0-.33-.22.9.9,0,0,0-.4-.08,1,1,0,0,0-.42.08,1.11,1.11,0,0,0-.34.22,1.27,1.27,0,0,0-.22.33,1.15,1.15,0,0,0-.08.41,1.07,1.07,0,0,0,.08.41,1.33,1.33,0,0,0,.22.34,1.11,1.11,0,0,0,.34.22,1,1,0,0,0,.42.09m0-2.4a1.35,1.35,0,0,1,.53.1,1.46,1.46,0,0,1,.44.29,1.37,1.37,0,0,1,.4.95,1.36,1.36,0,0,1-.11.53,1.55,1.55,0,0,1-.29.43,1.44,1.44,0,0,1-.44.28,1.2,1.2,0,0,1-.53.11,1.26,1.26,0,0,1-.55-.11,1.44,1.44,0,0,1-.44-.28,1.55,1.55,0,0,1-.29-.43,1.36,1.36,0,0,1-.11-.53,1.37,1.37,0,0,1,.4-.95,1.46,1.46,0,0,1,.44-.29,1.42,1.42,0,0,1,.55-.1M66.64,132.07a4.11,4.11,0,1,1,4.12,4.34,4.07,4.07,0,0,1-4.12-4.34m11,0v-6.78H74.68v1.64a5.16,5.16,0,0,0-4.29-2,7.13,7.13,0,0,0,0,14.24,5.14,5.14,0,0,0,4.29-2v1.65h2.95Zm99.66,0a4.11,4.11,0,1,1,4.12,4.34,4.07,4.07,0,0,1-4.12-4.34m11,0V119.84h-3v7.09a5.12,5.12,0,0,0-4.28-2,7.13,7.13,0,0,0,0,14.24,5.1,5.1,0,0,0,4.28-2v1.65h3Zm-74-4.48c1.9,0,3.12,1.19,3.43,3.29h-7a3.49,3.49,0,0,1,3.61-3.29m.05-2.64c-4,0-6.75,2.89-6.75,7.12s2.89,7.12,6.95,7.12a8.22,8.22,0,0,0,5.56-1.9l-1.44-2.18a6.55,6.55,0,0,1-4,1.42,3.78,3.78,0,0,1-4.06-3.33h10.08c0-.36.06-.74.06-1.13,0-4.23-2.65-7.12-6.45-7.12m35.62,7.12a4.11,4.11,0,1,1,4.11,4.34,4.06,4.06,0,0,1-4.11-4.34m11,0v-6.78h-2.95v1.64a5.15,5.15,0,0,0-4.28-2,7.13,7.13,0,0,0,0,14.24,5.13,5.13,0,0,0,4.28-2v1.65h2.95Zm-27.64,0a6.86,6.86,0,0,0,7.24,7.12,7.09,7.09,0,0,0,4.88-1.62L144,135.19a5.94,5.94,0,0,1-3.55,1.22,4.35,4.35,0,0,1,0-8.68A5.94,5.94,0,0,1,144,129l1.42-2.39a7.13,7.13,0,0,0-4.88-1.61,6.85,6.85,0,0,0-7.24,7.12m38-7.12a4,4,0,0,0-3.58,2v-1.64h-2.92v13.56h2.95v-7.6c0-2.25,1-3.49,2.89-3.49a4.72,4.72,0,0,1,1.85.34l.91-2.78a6.21,6.21,0,0,0-2.1-.37m-79.07,1.41A10.18,10.18,0,0,0,86.68,125c-3.43,0-5.65,1.64-5.65,4.34,0,2.21,1.65,3.57,4.68,4l1.4.2c1.61.23,2.38.65,2.38,1.42,0,1.05-1.08,1.64-3.09,1.64a7.23,7.23,0,0,1-4.52-1.42l-1.39,2.3a9.81,9.81,0,0,0,5.88,1.76c3.91,0,6.18-1.84,6.18-4.43,0-2.38-1.78-3.63-4.73-4l-1.39-.2c-1.28-.17-2.3-.43-2.3-1.34s1-1.58,2.58-1.58a8.79,8.79,0,0,1,4.23,1.16ZM130.27,125a4,4,0,0,0-3.57,2v-1.64h-2.93v13.56h3v-7.6c0-2.25,1-3.49,2.9-3.49a4.71,4.71,0,0,1,1.84.34l.91-2.78a6.17,6.17,0,0,0-2.1-.37m-25.17.34h-4.82v-4.12h-3v4.12H94.54V128h2.75v6.19c0,3.15,1.22,5,4.71,5a6.85,6.85,0,0,0,3.69-1.05l-.85-2.52a5.43,5.43,0,0,1-2.61.76c-1.47,0-2-.91-2-2.27V128h4.82ZM61,138.85v-8.51A5,5,0,0,0,55.66,125a5.26,5.26,0,0,0-4.77,2.41A5,5,0,0,0,46.41,125a4.48,4.48,0,0,0-4,2v-1.67H39.49v13.56h3v-7.52c0-2.35,1.31-3.6,3.33-3.6s3,1.27,3,3.57v7.55h3v-7.52c0-2.35,1.36-3.6,3.32-3.6s3,1.27,3,3.57v7.55Z"/><path class="cls-2" d="M194.78,93.74v-2h-.51l-.6,1.36-.6-1.36h-.51v2h.36V92.25l.56,1.29h.38l.56-1.3v1.5Zm-3.27,0V92.1h.66v-.34h-1.69v.34h.66v1.64Z"/><path class="cls-3" d="M136.06,102.26H91.36V21.93h44.7Z"/><path class="cls-4" d="M94.22,62.09a51,51,0,0,1,19.51-40.17,51.09,51.09,0,1,0,0,80.34A51,51,0,0,1,94.22,62.09"/><path class="cls-5" d="M196.34,62.09a51.09,51.09,0,0,1-82.66,40.17,51.09,51.09,0,0,0,0-80.34,51.09,51.09,0,0,1,82.66,40.17"/></svg>