<svg id="Layer_1" data-name="Layer 1" xmlns="http://www.w3.org/2000/svg" viewBox="0 0 403 168"><defs><style>.cls-1{fill:#707070;}.cls-1,.cls-2{fill-rule:evenodd;}.cls-2{fill:#707070;}</style></defs><path class="cls-1" d="M353.62,71.42a6.67,6.67,0,1,1,6.66,7,6.73,6.73,0,0,1-6.66-7Zm6.66,5.45a5.2,5.2,0,0,0,5.05-5.35,5.26,5.26,0,0,0-5.05-5.35,5.36,5.36,0,0,0,0,10.7Zm-.91-2.32H358V68.39h2.52a2.54,2.54,0,0,1,1.52.31,1.69,1.69,0,0,1,.7,1.51,1.54,1.54,0,0,1-1,1.51l1.11,2.73h-1.51L360.38,72h-1v2.52Zm0-3.43h.81A2,2,0,0,0,361,71a.8.8,0,0,0,.3-.71.71.71,0,0,0-.3-.6,2.09,2.09,0,0,0-.81-.11h-.71l-.1,1.52Z"/><path class="cls-1" d="M258.21,24.88,256.4,36.79c-3.94-2.12-6.87-2.92-10-2.92-8.28,0-14.13,8.48-14.13,20.49,0,8.28,3.93,13.33,10.4,13.33,2.72,0,5.75-.91,9.49-2.83l-1.92,12.52a32.43,32.43,0,0,1-9.9,1.61c-12,0-19.48-9.08-19.48-23.62,0-19.59,10.3-33.32,25.14-33.32a18.8,18.8,0,0,1,5,.61l4.65,1.21c1.21.51,1.51.61,2.52,1Z"/><path class="cls-1" d="M221.16,33.06a3.79,3.79,0,0,0-1.11-.1c-3.63,0-5.75,1.92-9.19,7.27l1-6.77H201.78L194.91,78h11.21c4-27.25,5-31.9,10.4-31.9h.8a44,44,0,0,1,4.25-12.92l-.41-.1Z"/><path class="cls-1" d="M154.43,77.38a24.52,24.52,0,0,1-8,1.51c-5.65,0-8.78-3.43-8.78-9.79a29.62,29.62,0,0,1,.3-4l.71-4.34.51-3.53L144,26.8h11.11l-1.32,6.56h5.76L158,44.16h-5.65l-2.93,18.58c-.1.81-.2,1.41-.2,1.82,0,2.32,1.21,3.33,3.84,3.33a8.2,8.2,0,0,0,3-.41l-1.61,9.9Z"/><path class="cls-1" d="M110.41,47.49c0,5.66,2.63,9.49,8.48,12.42,4.45,2.22,5.25,2.93,5.25,5,0,2.73-2,4-6.36,4a28,28,0,0,1-10-1.82l-1.52,10.3.51.1,2,.4c.7.1,1.61.3,2.93.41,2.62.2,4.74.4,6.15.4,11.71,0,17.17-4.75,17.17-14.84,0-6.06-2.23-9.69-7.88-12.42-4.64-2.22-5.15-2.72-5.15-4.84q0-3.65,5.45-3.64a60.23,60.23,0,0,1,8,.71l1.62-10.3a70.07,70.07,0,0,0-9.8-.91c-12.62,0-17,6.77-16.86,15Z"/><path class="cls-1" d="M347.16,77.88H336.55l.51-4.34c-3,3.43-6.26,4.95-10.3,4.95-8.18,0-13.53-7.37-13.53-18.48,0-14.84,8.28-27.36,18.18-27.36,4.34,0,7.57,1.92,10.7,6.06l2.42-15.65h11l-8.37,54.82ZM330.7,67.48c5.25,0,8.88-6.15,8.88-15,0-5.65-2.12-8.78-5.95-8.78-5.05,0-8.68,6.26-8.68,14.94,0,5.86,1.91,8.88,5.75,8.88Z"/><path class="cls-1" d="M189.76,77a36.78,36.78,0,0,1-11.5,1.82c-12.42,0-19-6.86-19-20,0-15.34,8.27-26.55,19.48-26.55,9.19,0,15,6.36,15,16.25a48.8,48.8,0,0,1-1.41,11H170.18a8.33,8.33,0,0,0-.1,1.41c0,5.25,3.33,7.88,9.79,7.88A26.16,26.16,0,0,0,191.48,66l-1.72,11Zm-6.25-26.55a19.74,19.74,0,0,0,.1-2.22c0-3.63-1.92-5.75-5.25-5.75-3.54,0-6.06,2.82-7.07,8Z"/><polygon class="cls-1" points="65.59 77.88 54.48 77.88 60.84 35.78 46.51 77.88 38.94 77.88 38.03 36.09 31.26 77.88 20.86 77.88 29.55 23.16 45.6 23.16 46 57.09 56.91 23.16 74.27 23.16 65.59 77.88 65.59 77.88"/><path class="cls-1" d="M94.36,58.09c-1.21-.1-1.72-.2-2.52-.2-6.36,0-9.49,2.33-9.49,6.77,0,2.72,1.61,4.54,4,4.54,4.45,0,7.78-4.54,8-11.11Zm8.08,19.79H93.15l.2-4.64c-2.83,3.73-6.56,5.35-11.71,5.35-6.06,0-10.2-5-10.2-12.12,0-10.9,7.27-17.16,19.59-17.16a36.45,36.45,0,0,1,4.54.31A14.28,14.28,0,0,0,96,46.69c0-2.93-1.92-4-7.17-4A33.18,33.18,0,0,0,79.52,44l-1.41.51-1,.3,1.51-10c5.55-1.71,9.29-2.42,13.33-2.42,9.59,0,14.64,4.54,14.64,13a61.35,61.35,0,0,1-.91,8.89l-2.22,15.85L103,72.94l-.3,2.22-.2,1.61-.1,1.11Z"/><path class="cls-1" d="M277.5,58.09c-1.12-.1-1.72-.2-2.53-.2-6.36,0-9.59,2.33-9.59,6.77,0,2.72,1.62,4.54,4,4.54,4.54,0,7.87-4.54,8.08-11.11Zm8.07,19.79h-9.29l.21-4.64c-2.83,3.73-6.57,5.35-11.71,5.35-6.06,0-10.2-5-10.2-12.12,0-10.9,7.27-17.16,19.58-17.16a37.88,37.88,0,0,1,4.55.31,14.09,14.09,0,0,0,.4-2.93c0-2.93-1.92-4-7.17-4A33.24,33.24,0,0,0,262.65,44l-1.61.41-1,.3,1.51-10c5.56-1.71,9.29-2.42,13.33-2.42,9.59,0,14.64,4.54,14.64,13a60,60,0,0,1-.91,8.89l-2.32,15.75-.3,2.82L285.67,75l-.2,1.52.1,1.41Z"/><path class="cls-1" d="M316.77,33.06a3.85,3.85,0,0,0-1.11-.1c-3.64,0-5.76,1.92-9.19,7.27l1-6.77h-10.1L290.52,78h11.2c4-27.25,5-31.9,10.4-31.9h.81a47.17,47.17,0,0,1,4.24-12.92l-.4-.1Z"/><path class="cls-2" d="M269.92,121.19c0,10.1-3.13,16.06-8.07,16.06-3.64.1-5.76-3.94-5.76-9.9,0-7.07,3.23-15.14,8.28-15.14,4.14,0,5.55,4.34,5.55,9Zm11,.1c0-11.2-5.55-20-15.95-20-12,0-19.79,10.61-19.79,26.25,0,11.21,4.64,20.4,15.95,20.4s19.79-8.08,19.79-26.66Z"/><path class="cls-2" d="M248.72,93.53,247,105.44c-3.74-2.12-6.36-2.92-9.29-2.92-7.78,0-13.23,8.48-13.23,20.49,0,8.28,3.64,13.33,9.7,13.33,2.62,0,5.45-.91,8.88-2.83L241.25,146a28.51,28.51,0,0,1-9.29,1.61c-11.2,0-18.27-9.08-18.27-23.62,0-19.59,9.69-33.32,23.52-33.32a15.84,15.84,0,0,1,4.65.61l4.24,1.21a9.88,9.88,0,0,1,2.62,1Z"/><path class="cls-2" d="M179.77,101.61a3.82,3.82,0,0,0-1.11-.1c-3.43,0-5.35,1.91-8.58,7.27l1-6.77H161.7l-6.36,44.52h10.4c3.73-27.26,4.74-31.9,9.69-31.9a2.91,2.91,0,0,1,.81.1,47.61,47.61,0,0,1,3.93-12.92l-.4-.2Z"/><path class="cls-2" d="M315.86,146.13H306l.5-4.34c-2.83,3.43-5.86,4.94-9.69,4.94-7.57,0-12.62-7.36-12.62-18.47,0-14.84,7.77-27.36,17-27.36,4,0,7.17,1.92,10,6.16l2.33-15.65h10.29l-7.87,54.72Zm-15.45-10.5c4.95,0,8.28-6.16,8.28-15,0-5.66-1.92-8.68-5.55-8.68-4.75,0-8.08,6.15-8.08,14.94,0,5.85,1.82,8.78,5.35,8.78Z"/><path class="cls-2" d="M82,145.93a32.2,32.2,0,0,1-10.7,1.81c-11.61,0-17.66-6.86-17.66-20,0-15.25,7.77-26.56,18.17-26.56,8.58,0,14,6.26,14,16.26a54.28,54.28,0,0,1-1.31,11H63.87a8.38,8.38,0,0,0-.1,1.42c0,5.14,3.13,7.77,9.19,7.77a22.73,22.73,0,0,0,10.8-2.83L82,145.93Zm-5.85-26.55c0-.91.1-1.72.1-2.23,0-3.63-1.82-5.75-5-5.75-3.33,0-5.65,2.83-6.66,8Z"/><path class="cls-2" d="M206,145.93a32.28,32.28,0,0,1-10.7,1.81c-11.71,0-17.77-6.86-17.77-20,0-15.25,7.77-26.56,18.17-26.56,8.58,0,14.13,6.26,14.13,16.26a54.28,54.28,0,0,1-1.31,11H187.85a7.63,7.63,0,0,0-.11,1.42c0,5.14,3.13,7.77,9.19,7.77a22.67,22.67,0,0,0,10.8-2.83L206,145.93Zm-5.86-26.55a19.9,19.9,0,0,0,.1-2.23c0-3.63-1.81-5.75-4.94-5.75-3.33,0-5.66,2.83-6.67,8Z"/><path class="cls-2" d="M351.4,145.93a33.18,33.18,0,0,1-10.71,1.81c-11.61,0-17.76-6.86-17.76-20,0-15.25,7.77-26.56,18.27-26.56,8.58,0,14,6.26,14,16.26a54.28,54.28,0,0,1-1.31,11h-20.7a8.38,8.38,0,0,0-.1,1.42c0,5.14,3.13,7.77,9.19,7.77a22.7,22.7,0,0,0,10.8-2.83l-1.71,11.11Zm-5.86-26.55c0-.91.1-1.72.1-2.23,0-3.63-1.82-5.75-4.95-5.75-3.33,0-5.65,2.83-6.66,8Z"/><path class="cls-2" d="M51.15,103.63a14.73,14.73,0,0,0-8.68-2.53c-4.24,0-7.57.91-7.57,5.35,0,7.88,15.34,5,15.34,21.91,0,15.45-10.09,19.48-19.28,19.48a31.17,31.17,0,0,1-12.22-2.92l2.53-11.31c2.12,1.92,6.26,3.23,9.79,3.23,3.33,0,8.38-.91,8.38-6.66,0-9-15.35-5.66-15.35-21.41,0-14.43,9-18.67,17.67-18.67,4.85,0,9.49.7,12.12,2.52l-2.73,11Z"/><path class="cls-2" d="M112.53,145.93a21.34,21.34,0,0,1-9.29,1.71c-9.08,0-14.73-9.08-14.73-20.19,0-14.54,8.17-26,20.19-26a22.08,22.08,0,0,1,9.79,2.92l-2.32,10.6a12.43,12.43,0,0,0-7-2.42c-5.55,0-9.59,5.15-9.59,14.24,0,5.25,2.93,9.59,7.47,9.59a13,13,0,0,0,7-1.92l-1.52,11.51Z"/><path class="cls-2" d="M151.5,134.72c-.5,3.84-1,7.57-1.31,11.51h-10l.81-7.17h-.1c-3.13,4.85-6.36,8.18-12.11,8.18-6.26,0-9.69-6.66-9.69-15.24a62,62,0,0,1,.8-9.29l2.83-20.6h11.21l-3,20.7a48.37,48.37,0,0,0-.71,6.76c0,2.63,1.21,5.25,4.24,5.05,4.54,0,7.27-5.55,8.08-12.11l3.13-20.4h10.8l-4.95,32.61Z"/><polygon class="cls-2" points="361.79 145.72 360.08 145.72 360.08 138.35 357.65 138.35 357.65 136.74 364.22 136.74 364.22 138.35 361.79 138.35 361.79 145.72 361.79 145.72"/><polygon class="cls-2" points="373 145.72 371.38 145.72 371.38 138.25 371.38 138.25 369.87 145.72 368.25 145.72 366.74 138.25 366.74 138.25 366.74 145.72 365.13 145.72 365.13 136.74 367.65 136.74 369.06 143.81 369.16 143.81 370.58 136.74 373 136.74 373 145.72 373 145.72"/></svg>