<svg xmlns="http://www.w3.org/2000/svg" width="420.063" height="44.739" viewBox="0 0 420.063 44.739"><defs><style>.a{fill:#fff;}.b,.c{fill:#d52b1e;}.c{fill-rule:evenodd;}.d{fill:#e50019;}.e{fill:none;stroke:#d52b1e;stroke-miterlimit:3.864;stroke-width:0.907px;}</style></defs><g transform="translate(-99.45 -75.277)"><g transform="translate(329.847 77.171)"><g transform="translate(0)"><path className="a" d="M177.9,390.262a20.648,20.648,0,1,0,20.648,20.648A20.647,20.647,0,0,0,177.9,390.262Zm0,38.965a18.318,18.318,0,1,1,18.319-18.317A18.318,18.318,0,0,1,177.9,429.228Z" transform="translate(-157.258 -390.262)"/><path className="a" d="M195.623,420.822l-3-3.5a.516.516,0,0,0-.614-.126h0a1.6,1.6,0,0,1-2.254-1.148h0a4.044,4.044,0,0,0-1.958-2.766l-1.343-.775,7.633-4.406-.945-1.638-8.577,4.952-1.031-.6v-1.191l8.577-4.952-.945-1.636-7.633,4.406V405.9a4.046,4.046,0,0,0-1.417-3.079h0a1.6,1.6,0,0,1,.133-2.527.513.513,0,0,0,.225-.427.532.532,0,0,0-.027-.167l-1.532-4.346a.319.319,0,0,0-.6,0l-1.532,4.346a.52.52,0,0,0,.2.594h0a1.6,1.6,0,0,1,.132,2.527A4.045,4.045,0,0,0,177.7,405.9v1.549l-7.633-4.406-.945,1.636,8.577,4.952v1.191l-1.03.594-8.578-4.952-.944,1.638,7.633,4.406-1.343.775a4.041,4.041,0,0,0-1.958,2.766h0a1.6,1.6,0,0,1-2.254,1.148h0a.518.518,0,0,0-.481.018.5.5,0,0,0-.132.108l-3,3.5a.32.32,0,0,0,.3.525l4.529-.848a.511.511,0,0,0,.159-.059.518.518,0,0,0,.257-.409,1.6,1.6,0,0,1,2.121-1.378,4.036,4.036,0,0,0,3.374-.314l1.343-.773v8.813h1.889v-9.9l1.031-.6,1.031.6v9.9h1.889v-8.813l1.343.773a4.039,4.039,0,0,0,3.375.314,1.6,1.6,0,0,1,2.121,1.378.518.518,0,0,0,.257.409.51.51,0,0,0,.159.059l4.529.848a.326.326,0,0,0,.34-.153A.32.32,0,0,0,195.623,420.822ZM177.7,415.383l-2.519,1.454a1.031,1.031,0,0,1-1.031-1.786l2.519-1.454,1.03.6Zm1.889-9.751a1.031,1.031,0,1,1,2.062,0v2.908l-1.031.6-1.031-.6Zm2.217,7.56-1.185.684-1.186-.684v-1.369l1.186-.685,1.185.685Zm5.662,3.268a1.032,1.032,0,0,1-1.409.377l-2.519-1.455v-1.19l1.031-.6,2.519,1.454A1.032,1.032,0,0,1,187.464,416.46Z" transform="translate(-159.969 -391.859)"/></g><g transform="translate(45.891 2.676)"><path className="a" d="M386.021,408.02H379.13V394.243h-6.3v35.943h6.3V414.4h6.891v15.784h6.432V394.243h-6.432Z" transform="translate(-273.79 -394.243)"/><path className="a" d="M240.852,394.243l-4.754,14-4.3-14h-6.279l6.986,22.039v13.9h6.992V415.568l7.243-21.325Z" transform="translate(-225.516 -394.243)"/><path className="a" d="M304.839,411.34l-3.5-17.1h-9.827v35.943h5.635V403.092l4.809,23.553h5.263l4.265-23.935v27.476h6.608V394.243H307.854Z" transform="translate(-247.142 -394.243)"/><path className="a" d="M422.6,394.243h-9.734L406.3,430.186h5.825l1.393-8.364h7.246l1.351,8.364h6.419Zm-8.086,21.587,2.678-16.076,2.6,16.076Z" transform="translate(-284.754 -394.243)"/><path className="a" d="M341.9,394.243l-6.571,35.943h5.826l1.394-8.364h7.246l1.351,8.364h6.417l-5.931-35.943Zm1.648,21.587,2.679-16.076,2.6,16.076Z" transform="translate(-261.499 -394.243)"/><path className="a" d="M260.576,394.243l-6.571,35.943h5.827l1.394-8.364h7.245l1.352,8.364h6.416l-5.93-35.943Zm1.649,21.587,2.679-16.076,2.6,16.076Z" transform="translate(-234.851 -394.243)"/></g></g><g transform="translate(99.45 75.277)"><path className="b" d="M169.8,360.4h-7.479l-4.529,15.883-4.61-15.883h-7.167l7.825,24.271v11.815h7.943v-11.9L169.8,360.4" transform="translate(-98.874 -355.763)"/><path className="c" d="M217.225,388.137l-1.387,8.346h-7.33l6.663-36.086h9.791l6.337,36.086h-7.234l-1.237-8.346h-5.6m2.72-19.432-1.972,12.836H222Z" transform="translate(-138.398 -355.763)"/><path className="b" d="M281.731,360.4v36.086h6.827V373.477l4.12,23.005h4.2l4.188-23.249v23.249h6.84V360.4h-10.05l-3.046,17.038L291.685,360.4h-9.954" transform="translate(-184.709 -355.763)"/><path className="c" d="M372.7,388.137l-1.386,8.346h-7.331l6.664-36.086h9.791l6.338,36.086h-7.235l-1.238-8.346h-5.6m2.72-19.432-1.972,12.836h4.026Z" transform="translate(-236.729 -355.763)"/><path className="b" d="M436.944,360.4v36.086h7.4V381.3h6.581v15.187h7.413V360.4h-7.413v13.993h-6.581V360.4h-7.4" transform="translate(-282.875 -355.763)"/><path className="c" d="M514.169,387.987l-1.386,8.346h-7.33l6.664-36.085h9.79l6.338,36.085h-7.235l-1.238-8.346h-5.6m2.72-19.432-1.971,12.836h4.025Z" transform="translate(-326.204 -355.669)"/><path className="b" d="M17.753,370.161a22.37,22.37,0,1,1,22.37,22.369,22.37,22.37,0,0,1-22.37-22.369" transform="translate(-17.753 -347.791)"/><path className="a" d="M21.557,372.568a20.972,20.972,0,1,1,20.972,20.971,20.972,20.972,0,0,1-20.972-20.971" transform="translate(-20.159 -350.198)"/><path className="b" d="M32.915,379.751a16.8,16.8,0,1,1,16.8,16.8,16.8,16.8,0,0,1-16.8-16.8" transform="translate(-27.342 -357.38)"/><path className="d" d="M57.745,381.792a3.258,3.258,0,0,1-.437.186,3.2,3.2,0,0,1-2.639-.258l-1.272-.734v8.671H51.674v-9.666l-1.613-.931-1.347.747v9.85h-1.73v-8.891l-2.11,1.169a3.2,3.2,0,0,1-3.152-.023c-.716-.218-2.037-.275-2.814,1.82l-6.042,1.179,4.2-4.5c2.256.464,2.879-.771,3.051-1.487a3.143,3.143,0,0,1,.066-.47,3.2,3.2,0,0,1,1.58-2.13l1.817-1.007L35.748,370.8l.862-1.494,8.729,5.04,1.644-.911v-1.558l-8.892-5.134.865-1.5,8.027,4.635V367.81a3.2,3.2,0,0,1,1.548-2.746c.539-.52,1.228-1.647-.226-3.344l1.9-5.857,1.9,5.857c-1.5,1.748-.721,2.891-.178,3.389a3.208,3.208,0,0,1,1.475,2.7v2.067l7.474-4.142.836,1.508-8.31,4.606v1.732l1.461.843,8.285-4.592.838,1.513-7.375,4.087,1.271.734a3.2,3.2,0,0,1,1.6,2.713c.182.727.813,1.888,3.01,1.476l4.123,4.572-6.02-1.284C59.827,381.469,58.448,381.572,57.745,381.792Zm-10.762-4.51-1.661-.959L42.483,377.9a1.481,1.481,0,0,0,1.436,2.59l3.064-1.7Zm1.73-.991,1.359.784,1.6-.887v-1.606l-1.573-.908-1.388.77ZM53.4,379l2.247,1.3a1.48,1.48,0,1,0,1.48-2.563l-2.284-1.319-1.444.8Zm-4.684-8.12,1.412.814,1.549-.858v-3.154a1.48,1.48,0,1,0-2.961,0Z" transform="translate(-27.31 -352.896)"/><path className="e" d="M57.745,381.792a3.258,3.258,0,0,1-.437.186,3.2,3.2,0,0,1-2.639-.258l-1.272-.734v8.671H51.674v-9.666l-1.613-.931-1.347.747v9.85h-1.73v-8.891l-2.11,1.169a3.2,3.2,0,0,1-3.152-.023c-.716-.218-2.037-.275-2.814,1.82l-6.042,1.179,4.2-4.5c2.256.464,2.879-.771,3.051-1.487a3.143,3.143,0,0,1,.066-.47,3.2,3.2,0,0,1,1.58-2.13l1.817-1.007L35.748,370.8l.862-1.494,8.729,5.04,1.644-.911v-1.558l-8.892-5.134.865-1.5,8.027,4.635V367.81a3.2,3.2,0,0,1,1.548-2.746c.539-.52,1.228-1.647-.226-3.344l1.9-5.857,1.9,5.857c-1.5,1.748-.721,2.891-.178,3.389a3.208,3.208,0,0,1,1.475,2.7v2.067l7.474-4.142.836,1.508-8.31,4.606v1.732l1.461.843,8.285-4.592.838,1.513-7.375,4.087,1.271.734a3.2,3.2,0,0,1,1.6,2.713c.182.727.813,1.888,3.01,1.476l4.123,4.572-6.02-1.284C59.827,381.469,58.448,381.572,57.745,381.792Zm-10.762-4.51-1.661-.959L42.483,377.9a1.481,1.481,0,0,0,1.436,2.59l3.064-1.7Zm1.73-.991,1.359.784,1.6-.887v-1.606l-1.573-.908-1.388.77ZM53.4,379l2.247,1.3a1.48,1.48,0,1,0,1.48-2.563l-2.284-1.319-1.444.8Zm-4.684-8.12,1.412.814,1.549-.858v-3.154a1.48,1.48,0,1,0-2.961,0Z" transform="translate(-27.31 -352.896)"/><path className="a" d="M57.745,381.792a3.258,3.258,0,0,1-.437.186,3.2,3.2,0,0,1-2.639-.258l-1.272-.734v8.671H51.674v-9.666l-1.613-.931-1.347.747v9.85h-1.73v-8.891l-2.11,1.169a3.2,3.2,0,0,1-3.152-.023c-.716-.218-2.037-.275-2.814,1.82l-6.042,1.179,4.2-4.5c2.256.464,2.879-.771,3.051-1.487a3.143,3.143,0,0,1,.066-.47,3.2,3.2,0,0,1,1.58-2.13l1.817-1.007L35.748,370.8l.862-1.494,8.729,5.04,1.644-.911v-1.558l-8.892-5.134.865-1.5,8.027,4.635V367.81a3.2,3.2,0,0,1,1.548-2.746c.539-.52,1.228-1.647-.226-3.344l1.9-5.857,1.9,5.857c-1.5,1.748-.721,2.891-.178,3.389a3.208,3.208,0,0,1,1.475,2.7v2.067l7.474-4.142.836,1.508-8.31,4.606v1.732l1.461.843,8.285-4.592.838,1.513-7.375,4.087,1.271.734a3.2,3.2,0,0,1,1.6,2.713c.182.727.813,1.888,3.01,1.476l4.123,4.572-6.02-1.284c-.764-2.173-2.143-2.071-2.846-1.851m-10.762-4.51-1.661-.959L42.483,377.9a1.481,1.481,0,0,0,1.436,2.59l3.064-1.7Zm1.73-.991,1.359.784,1.6-.887v-1.606l-1.573-.908-1.388.77ZM53.4,379l2.247,1.3a1.48,1.48,0,1,0,1.48-2.563l-2.284-1.319-1.444.8Zm-4.684-8.12,1.412.814,1.549-.858v-3.154a1.48,1.48,0,1,0-2.961,0Z" transform="translate(-27.31 -352.896)"/></g></g></svg>