<svg xmlns="http://www.w3.org/2000/svg" width="201.87" height="45" viewBox="0 0 201.87 45">
  <g id="Logo-Motor_updated_0207_onblack" transform="translate(-0.246 52.5)">
    <g id="Symbol">
      <path id="Path_442" data-name="Path 442" d="M.246-30a22.5,22.5,0,0,1,22.5-22.5A22.5,22.5,0,0,1,45.246-30a22.5,22.5,0,0,1-22.5,22.5h0A22.5,22.5,0,0,1,.246-30" fill="#d52b1e"/>
      <path id="Path_443" data-name="Path 443" d="M1.652-30a21.094,21.094,0,0,1,21.093-21.1A21.1,21.1,0,0,1,43.84-30,21.1,21.1,0,0,1,22.747-8.906h0A21.094,21.094,0,0,1,1.652-30" fill="#fff"/>
      <path id="Path_444" data-name="Path 444" d="M5.851-30a16.9,16.9,0,0,1,16.9-16.9A16.9,16.9,0,0,1,39.646-30a16.9,16.9,0,0,1-16.9,16.9h0A16.9,16.9,0,0,1,5.851-30" fill="#d52b1e"/>
      <path id="Path_445" data-name="Path 445" d="M30.858-23.435a3.339,3.339,0,0,1-.44.187,3.22,3.22,0,0,1-2.654-.259l-1.28-.739v8.722H24.751v-9.723l-1.622-.936-1.355.751v9.908h-1.74v-8.943l-2.122,1.176a3.223,3.223,0,0,1-3.171-.023c-.72-.22-2.048-.277-2.83,1.83L5.834-20.3l4.224-4.526c2.27.467,2.9-.776,3.069-1.5a3.15,3.15,0,0,1,.067-.473,3.215,3.215,0,0,1,1.589-2.142l1.827-1.013L8.733-34.491l.867-1.5,8.78,5.07,1.653-.917v-1.567l-8.944-5.164.87-1.508,8.074,4.662V-37.5A3.218,3.218,0,0,1,21.59-40.26c.542-.523,1.235-1.657-.227-3.364l1.911-5.891,1.911,5.891c-1.509,1.758-.725,2.908-.179,3.409A3.226,3.226,0,0,1,26.489-37.5v2.079l7.518-4.166.841,1.516-8.359,4.633v1.742l1.47.848,8.333-4.619.843,1.522-7.418,4.111L31-29.095a3.221,3.221,0,0,1,1.61,2.729c.183.731.817,1.9,3.027,1.485l4.147,4.6-6.055-1.291C32.952-23.76,31.565-23.656,30.858-23.435ZM20.033-27.971l-1.671-.965L15.507-27.35a1.489,1.489,0,0,0-.541,2.036,1.488,1.488,0,0,0,1.985.569l3.082-1.71Zm1.74-1,1.367.788,1.609-.892v-1.615L23.167-31.6l-1.4.774Zm4.714,2.725,2.26,1.307a1.487,1.487,0,0,0,2.042-.512,1.488,1.488,0,0,0-.511-2.042l-.042-.024-2.3-1.326-1.453.8ZM21.776-34.41l1.42.818,1.558-.863v-3.172a1.489,1.489,0,0,0-1.489-1.489,1.489,1.489,0,0,0-1.489,1.489h0Z" fill="#e50019"/>
      <path id="Path_446" data-name="Path 446" d="M30.858-23.435a3.339,3.339,0,0,1-.44.187,3.22,3.22,0,0,1-2.654-.259l-1.28-.739v8.722H24.751v-9.723l-1.622-.936-1.355.751v9.908h-1.74v-8.943l-2.122,1.176a3.223,3.223,0,0,1-3.171-.023c-.72-.22-2.048-.277-2.83,1.83L5.834-20.3l4.224-4.526c2.27.467,2.9-.776,3.069-1.5a3.15,3.15,0,0,1,.067-.473,3.215,3.215,0,0,1,1.589-2.142l1.827-1.013L8.733-34.491l.867-1.5,8.78,5.07,1.653-.917v-1.567l-8.944-5.164.87-1.508,8.074,4.662V-37.5A3.218,3.218,0,0,1,21.59-40.26c.542-.523,1.235-1.657-.227-3.364l1.911-5.891,1.911,5.891c-1.509,1.758-.725,2.908-.179,3.409A3.226,3.226,0,0,1,26.489-37.5v2.079l7.518-4.166.841,1.516-8.359,4.633v1.742l1.47.848,8.333-4.619.843,1.522-7.418,4.111L31-29.095a3.221,3.221,0,0,1,1.61,2.729c.183.731.817,1.9,3.027,1.485l4.147,4.6-6.055-1.291C32.952-23.76,31.565-23.656,30.858-23.435ZM20.033-27.971l-1.671-.965L15.507-27.35a1.489,1.489,0,0,0-.541,2.036,1.488,1.488,0,0,0,1.985.569l3.082-1.71Zm1.74-1,1.367.788,1.609-.892v-1.615L23.167-31.6l-1.4.774Zm4.714,2.725,2.26,1.307a1.487,1.487,0,0,0,2.042-.512,1.488,1.488,0,0,0-.511-2.042l-.042-.024-2.3-1.326-1.453.8ZM21.776-34.41l1.42.818,1.558-.863v-3.172a1.489,1.489,0,0,0-1.489-1.489,1.489,1.489,0,0,0-1.489,1.489h0Z" fill="none" stroke="#d52b1e" stroke-miterlimit="3.864" stroke-width="0.907"/>
      <path id="Path_447" data-name="Path 447" d="M30.858-23.435a3.339,3.339,0,0,1-.44.187,3.22,3.22,0,0,1-2.654-.259l-1.28-.739v8.722H24.751v-9.723l-1.622-.936-1.355.751v9.908h-1.74v-8.943l-2.122,1.176a3.223,3.223,0,0,1-3.171-.023c-.72-.22-2.048-.277-2.83,1.83L5.834-20.3l4.224-4.526c2.27.467,2.9-.776,3.069-1.5a3.15,3.15,0,0,1,.067-.473,3.215,3.215,0,0,1,1.589-2.142l1.827-1.013L8.733-34.491l.867-1.5,8.78,5.07,1.653-.917v-1.567l-8.944-5.164.87-1.508,8.074,4.662V-37.5A3.218,3.218,0,0,1,21.59-40.26c.542-.523,1.235-1.657-.227-3.364l1.911-5.891,1.911,5.891c-1.509,1.758-.725,2.908-.179,3.409A3.226,3.226,0,0,1,26.489-37.5v2.079l7.518-4.166.841,1.516-8.359,4.633v1.742l1.47.848,8.333-4.619.843,1.522-7.418,4.111L31-29.095a3.221,3.221,0,0,1,1.61,2.729c.183.731.817,1.9,3.027,1.485l4.147,4.6-6.055-1.291c-.768-2.186-2.155-2.083-2.862-1.862M20.037-27.972l-1.671-.965L15.507-27.35a1.489,1.489,0,0,0-.541,2.036,1.488,1.488,0,0,0,1.985.569l3.082-1.71Zm1.74-1,1.367.788,1.609-.892v-1.615L23.171-31.6l-1.4.774Zm4.71,2.726,2.26,1.307a1.487,1.487,0,0,0,2.042-.512,1.488,1.488,0,0,0-.511-2.042l-.042-.024-2.3-1.326-1.453.8ZM21.776-34.41l1.42.818,1.558-.863v-3.172a1.489,1.489,0,0,0-1.489-1.489,1.489,1.489,0,0,0-1.489,1.489h0Z" fill="#fff"/>
    </g>
    <path id="Path_436" data-name="Path 436" d="M71-47.747H63.522L58.993-31.864l-4.61-15.883H47.216l7.825,24.271v11.815h7.943v-11.9L71-47.747" fill="#d52b1e"/>
    <path id="Path_437" data-name="Path 437" d="M78.9-20.01l-1.387,8.346h-7.33L76.848-47.75h9.791l6.337,36.086H85.742L84.5-20.01H78.9m2.72-19.432L79.653-26.606h4.024Z" fill="#d52b1e" fill-rule="evenodd"/>
    <path id="Path_438" data-name="Path 438" d="M97.1-47.747v36.086h6.827V-34.67l4.12,23h4.2l4.188-23.249v23.249h6.84V-47.747h-10.05l-3.046,17.038-3.125-17.038H97.1" fill="#d52b1e"/>
    <path id="Path_439" data-name="Path 439" d="M136.046-20.01l-1.386,8.346h-7.331l6.664-36.086h9.791l6.338,36.086h-7.235l-1.238-8.346h-5.6m2.72-19.432L136.8-26.606h4.026Z" fill="#d52b1e" fill-rule="evenodd"/>
    <path id="Path_440" data-name="Path 440" d="M154.144-47.747v36.086h7.4V-26.847h6.581V-11.66h7.413V-47.747h-7.413v13.993h-6.581V-47.747h-7.4" fill="#d52b1e"/>
    <path id="Path_441" data-name="Path 441" d="M188.04-20.066l-1.386,8.346h-7.33l6.664-36.085h9.79l6.338,36.085h-7.235l-1.238-8.346h-5.6m2.72-19.432-1.971,12.836h4.025Z" fill="#d52b1e" fill-rule="evenodd"/>
  </g>
</svg>
