<svg xmlns="http://www.w3.org/2000/svg" width="191.508" height="45" viewBox="0 0 191.508 45">
  <g id="Logo-Music_updated_0207_onblack" transform="translate(-230.246 52.5)">
    <g id="Group_1276" data-name="Group 1276">
      <path id="Path_452" data-name="Path 452" d="M252.746-52.5a22.5,22.5,0,0,0-22.5,22.5,22.5,22.5,0,0,0,22.5,22.5,22.5,22.5,0,0,0,22.5-22.5,22.5,22.5,0,0,0-22.5-22.5h0m0,42.461A19.961,19.961,0,0,1,232.786-30a19.961,19.961,0,0,1,19.962-19.96A19.962,19.962,0,0,1,272.708-30a19.963,19.963,0,0,1-19.962,19.961" fill="#fff"/>
      <path id="Path_453" data-name="Path 453" d="M269.1-20.938l-3.268-3.813a.6.6,0,0,0-.142-.118.567.567,0,0,0-.525-.019,1.741,1.741,0,0,1-2.319-.827,1.76,1.76,0,0,1-.138-.423h0a4.419,4.419,0,0,0-2.134-3.011l-1.465-.844,8.318-4.8L266.4-36.578l-9.345,5.39-1.123-.648v-1.3l9.346-5.4-1.029-1.784-8.317,4.8V-37.2a4.413,4.413,0,0,0-1.544-3.355,1.738,1.738,0,0,1-.189-2.452,1.733,1.733,0,0,1,.334-.3.564.564,0,0,0,.244-.466.6.6,0,0,0-.029-.183l-1.669-4.736a.348.348,0,0,0-.442-.218.346.346,0,0,0-.217.218l-1.669,4.738a.571.571,0,0,0-.03.183.563.563,0,0,0,.243.466h0a1.738,1.738,0,0,1,.445,2.419,1.727,1.727,0,0,1-.3.333,4.41,4.41,0,0,0-1.544,3.355v1.689l-8.317-4.8-1.028,1.777,9.347,5.4v1.3l-1.123.647-9.347-5.4-1.029,1.783,8.317,4.8-1.463.844a4.4,4.4,0,0,0-2.134,3.011h0a1.741,1.741,0,0,1-2.025,1.4,1.723,1.723,0,0,1-.431-.139.561.561,0,0,0-.525.019.56.56,0,0,0-.143.118l-3.267,3.813a.349.349,0,0,0-.041.4.353.353,0,0,0,.37.167l4.936-.924a.591.591,0,0,0,.173-.064.566.566,0,0,0,.28-.446,1.738,1.738,0,0,1,1.868-1.6,1.743,1.743,0,0,1,.44.093,4.405,4.405,0,0,0,3.677-.342l1.463-.843v9.6h2.06V-25.677l1.123-.648,1.123.648v10.793h2.059v-9.6l1.462.843a4.406,4.406,0,0,0,3.677.342,1.739,1.739,0,0,1,2.216,1.067,1.738,1.738,0,0,1,.093.438.562.562,0,0,0,.279.446.591.591,0,0,0,.173.064l4.937.924a.353.353,0,0,0,.37-.167.35.35,0,0,0-.04-.4m-19.528-5.936L246.82-25.28a1.123,1.123,0,0,1-1.527-.442,1.122,1.122,0,0,1,.4-1.5l2.745-1.585,1.123.65Zm2.06-10.626a1.123,1.123,0,0,1,1.122-1.124,1.124,1.124,0,0,1,1.124,1.122v3.174l-1.123.647-1.123-.647Zm2.415,8.238-1.292.744-1.293-.745v-1.492l1.293-.746,1.292.746Zm6.169,3.564a1.126,1.126,0,0,1-1.535.412l-2.744-1.586v-1.3l1.123-.65,2.745,1.585a1.125,1.125,0,0,1,.411,1.535" fill="#fff"/>
    </g>
    <g id="yamaha">
      <path id="Path_416" data-name="Path 416" d="M390.084-33.977h-6.891V-47.813h-6.3v36.1h6.3V-27.568h6.891v15.852h6.432v-36.1h-6.432Z" fill="#fff"/>
      <path id="Path_417" data-name="Path 417" d="M292.7-47.813l-4.752,14.062-4.3-14.063h-6.279l6.986,22.133v13.963h6.992V-26.4l7.243-21.417Z" fill="#fff"/>
      <path id="Path_418" data-name="Path 418" d="M335.291-30.643l-3.5-17.171h-9.827v36.1H327.6v-27.21l4.809,23.654h5.263l4.265-24.038v27.594h6.608v-36.1H338.306Z" fill="#fff"/>
      <path id="Path_419" data-name="Path 419" d="M415.822-47.813h-9.734l-6.568,36.1h5.825l1.393-8.4h7.246l1.351,8.4h6.419Zm-8.086,21.68,2.678-16.145,2.6,16.145Z" fill="#fff"/>
      <path id="Path_420" data-name="Path 420" d="M358.136-47.813l-6.571,36.1h5.826l1.394-8.4h7.246l1.351,8.4H373.8l-5.931-36.1Zm1.648,21.68,2.679-16.145,2.6,16.145Z" fill="#fff"/>
      <path id="Path_421" data-name="Path 421" d="M303.087-47.813l-6.571,36.1h5.827l1.394-8.4h7.245l1.352,8.4h6.416l-5.93-36.1Zm1.649,21.68,2.679-16.145,2.6,16.145Z" fill="#fff"/>
    </g>
  </g>
</svg>
