<svg xmlns="http://www.w3.org/2000/svg" width="185.564" height="40.403" viewBox="0 0 185.564 40.403">
  <g id="MUSIC_LOGO" data-name="MUSIC LOGO" transform="translate(0 0)">
    <g id="Group_1195" data-name="Group 1195" transform="translate(0)">
      <path id="Path_414" data-name="Path 414" d="M177.458,390.262a20.2,20.2,0,1,0,20.2,20.2A20.2,20.2,0,0,0,177.458,390.262Zm0,38.123a17.922,17.922,0,1,1,17.922-17.921A17.922,17.922,0,0,1,177.458,428.385Z" transform="translate(-157.258 -390.262)"/>
      <path id="Path_415" data-name="Path 415" d="M194.972,420.267l-2.934-3.425a.505.505,0,0,0-.6-.124h0a1.563,1.563,0,0,1-2.206-1.123h0a3.956,3.956,0,0,0-1.916-2.706L186,412.131l7.468-4.311-.924-1.6-8.391,4.845-1.009-.582v-1.165l8.392-4.844-.924-1.6-7.468,4.311v-1.516a3.958,3.958,0,0,0-1.386-3.013h0a1.562,1.562,0,0,1,.13-2.472.5.5,0,0,0,.22-.418.521.521,0,0,0-.026-.164l-1.5-4.252a.312.312,0,0,0-.591,0l-1.5,4.252a.508.508,0,0,0,.192.581h0a1.561,1.561,0,0,1,.13,2.472,3.958,3.958,0,0,0-1.385,3.013v1.516l-7.468-4.311-.924,1.6,8.392,4.844v1.166l-1.008.582-8.393-4.845-.924,1.6,7.468,4.311-1.314.758a3.953,3.953,0,0,0-1.915,2.706h0a1.562,1.562,0,0,1-2.206,1.123h0a.507.507,0,0,0-.471.018.485.485,0,0,0-.129.106l-2.934,3.424a.313.313,0,0,0,.3.514l4.431-.83a.5.5,0,0,0,.156-.058.507.507,0,0,0,.252-.4,1.562,1.562,0,0,1,2.075-1.348,3.949,3.949,0,0,0,3.3-.307l1.314-.756V425.7h1.848v-9.69l1.009-.582,1.008.582v9.69h1.848v-8.622l1.314.756a3.952,3.952,0,0,0,3.3.307,1.561,1.561,0,0,1,2.075,1.348.507.507,0,0,0,.251.4.5.5,0,0,0,.156.058l4.431.83a.319.319,0,0,0,.333-.15A.313.313,0,0,0,194.972,420.267Zm-17.54-5.321-2.464,1.422a1.009,1.009,0,0,1-1.008-1.747l2.465-1.423,1.008.582Zm1.848-9.54a1.009,1.009,0,1,1,2.017,0v2.845l-1.008.582-1.009-.582Zm2.169,7.4-1.16.669-1.16-.67v-1.34l1.16-.67,1.16.67Zm5.54,3.2a1.01,1.01,0,0,1-1.379.369l-2.464-1.423V413.78l1.009-.582,2.464,1.423A1.01,1.01,0,0,1,186.989,416Z" transform="translate(-160.089 -391.93)"/>
    </g>
    <g id="Group_1196" data-name="Group 1196" transform="translate(44.898 2.618)">
      <path id="Path_416" data-name="Path 416" d="M385.736,407.722h-6.742V394.243h-6.159v35.166h6.159V413.965h6.742v15.443h6.293V394.243h-6.293Z" transform="translate(-275.932 -394.243)"/>
      <path id="Path_417" data-name="Path 417" d="M240.52,394.243l-4.652,13.7-4.21-13.7h-6.143l6.835,21.563v13.6h6.841v-14.3l7.086-20.864Z" transform="translate(-225.516 -394.243)"/>
      <path id="Path_418" data-name="Path 418" d="M304.551,410.97l-3.421-16.728h-9.615v35.166h5.513V402.9l4.705,23.044h5.149l4.173-23.418v26.882h6.465V394.243H307.5Z" transform="translate(-248.102 -394.243)"/>
      <path id="Path_419" data-name="Path 419" d="M422.246,394.243h-9.524L406.3,429.408h5.7l1.363-8.183h7.09l1.321,8.183h6.28Zm-7.911,21.121,2.621-15.728,2.544,15.728Z" transform="translate(-287.383 -394.243)"/>
      <path id="Path_420" data-name="Path 420" d="M341.756,394.243l-6.429,35.165h5.7l1.364-8.183h7.09l1.321,8.183h6.278l-5.8-35.165Zm1.612,21.121,2.621-15.728,2.544,15.728Z" transform="translate(-263.096 -394.243)"/>
      <path id="Path_421" data-name="Path 421" d="M260.433,394.243l-6.428,35.165h5.7l1.364-8.183h7.088l1.323,8.183h6.277l-5.8-35.165Zm1.613,21.121,2.621-15.728,2.543,15.728Z" transform="translate(-235.265 -394.243)"/>
    </g>
  </g>
</svg>
