<svg xmlns="http://www.w3.org/2000/svg" viewBox="0 0 422 46"><title>Yamaha Logos_updated-0207_onblack</title><g id="Layer_1" data-name="Layer 1"><g id="Symbol"><path id="Path_442" data-name="Path 442" d="M.25,23a22.5,22.5,0,1,1,22.5,22.5h0A22.5,22.5,0,0,1,.25,23" fill="#d52b1e"/><path id="Path_443" data-name="Path 443" d="M1.65,23a21.1,21.1,0,1,1,21.1,21.09h0A21.1,21.1,0,0,1,1.65,23" fill="#fff"/><path id="Path_444" data-name="Path 444" d="M5.85,23a16.9,16.9,0,1,1,16.9,16.9h0A16.9,16.9,0,0,1,5.85,23" fill="#d52b1e"/><path id="Path_445" data-name="Path 445" d="M30.86,29.56a2.44,2.44,0,0,1-.44.19,3.22,3.22,0,0,1-2.66-.26l-1.28-.74v8.73H24.75V27.75l-1.62-.93-1.36.75v9.91H20V28.53l-2.12,1.18a3.23,3.23,0,0,1-3.17,0c-.72-.22-2.05-.28-2.83,1.83L5.83,32.7l4.23-4.52c2.27.46,2.89-.78,3.07-1.5a3.55,3.55,0,0,1,.06-.47,3.24,3.24,0,0,1,1.59-2.14l1.83-1L8.73,18.51,9.6,17l8.78,5.07L20,21.16V19.59l-8.94-5.16L12,12.92,20,17.58V15.5a3.21,3.21,0,0,1,1.56-2.76c.54-.52,1.24-1.66-.23-3.36l1.91-5.89,1.91,5.89c-1.5,1.75-.72,2.9-.17,3.4a3.25,3.25,0,0,1,1.48,2.72v2.08L34,13.41l.84,1.52-8.36,4.63v1.75l1.47.84,8.33-4.62.84,1.53-7.41,4.11,1.28.74a3.22,3.22,0,0,1,1.6,2.72c.19.74.82,1.9,3,1.49l4.15,4.6-6.06-1.29C33,29.24,31.56,29.34,30.86,29.56ZM20,25l-1.67-1-2.85,1.59A1.49,1.49,0,0,0,17,28.26L20,26.55Zm1.74-1,1.37.79,1.61-.89V22.31l-1.58-.91-1.4.77Zm4.72,2.73,2.26,1.3a1.48,1.48,0,0,0,2-.51,1.49,1.49,0,0,0-.51-2l0,0-2.3-1.33-1.45.8Zm-4.71-8.17,1.42.82,1.55-.86V15.37a1.49,1.49,0,1,0-3,0h0Z" fill="#e50019"/><path id="Path_446" data-name="Path 446" d="M30.86,29.56a2.44,2.44,0,0,1-.44.19,3.22,3.22,0,0,1-2.66-.26l-1.28-.74v8.73H24.75V27.75l-1.62-.93-1.36.75v9.91H20V28.53l-2.12,1.18a3.23,3.23,0,0,1-3.17,0c-.72-.22-2.05-.28-2.83,1.83L5.83,32.7l4.23-4.52c2.27.46,2.89-.78,3.07-1.5a3.55,3.55,0,0,1,.06-.47,3.24,3.24,0,0,1,1.59-2.14l1.83-1L8.73,18.51,9.6,17l8.78,5.07L20,21.16V19.59l-8.94-5.16L12,12.92,20,17.58V15.5a3.21,3.21,0,0,1,1.56-2.76c.54-.52,1.24-1.66-.23-3.36l1.91-5.89,1.91,5.89c-1.5,1.75-.72,2.9-.17,3.4a3.25,3.25,0,0,1,1.48,2.72v2.08L34,13.41l.84,1.52-8.36,4.63v1.75l1.47.84,8.33-4.62.84,1.53-7.41,4.11,1.28.74a3.22,3.22,0,0,1,1.6,2.72c.19.74.82,1.9,3,1.49l4.15,4.6-6.06-1.29C33,29.24,31.56,29.34,30.86,29.56ZM20,25l-1.67-1-2.85,1.59A1.49,1.49,0,0,0,17,28.26L20,26.55Zm1.74-1,1.37.79,1.61-.89V22.31l-1.58-.91-1.4.77Zm4.72,2.73,2.26,1.3a1.48,1.48,0,0,0,2-.51,1.49,1.49,0,0,0-.51-2l0,0-2.3-1.33-1.45.8Zm-4.71-8.17,1.42.82,1.55-.86V15.37a1.49,1.49,0,1,0-3,0h0Z" fill="none" stroke="#d52b1e" stroke-miterlimit="3.86" stroke-width="0.91"/><path id="Path_447" data-name="Path 447" d="M30.86,29.56a2.44,2.44,0,0,1-.44.19,3.22,3.22,0,0,1-2.66-.26l-1.28-.74v8.73H24.75V27.75l-1.62-.93-1.36.75v9.91H20V28.53l-2.12,1.18a3.23,3.23,0,0,1-3.17,0c-.72-.22-2.05-.28-2.83,1.83L5.83,32.7l4.23-4.52c2.27.46,2.89-.78,3.07-1.5a3.55,3.55,0,0,1,.06-.47,3.24,3.24,0,0,1,1.59-2.14l1.83-1L8.73,18.51,9.6,17l8.78,5.07L20,21.16V19.59l-8.94-5.16L12,12.92,20,17.58V15.5a3.21,3.21,0,0,1,1.56-2.76c.54-.52,1.24-1.66-.23-3.36l1.91-5.89,1.91,5.89c-1.5,1.75-.72,2.9-.17,3.4a3.25,3.25,0,0,1,1.48,2.72v2.08L34,13.41l.84,1.52-8.36,4.63v1.75l1.47.84,8.33-4.62.84,1.53-7.41,4.11,1.28.74a3.22,3.22,0,0,1,1.6,2.72c.19.74.82,1.9,3,1.49l4.15,4.6-6.06-1.29c-.76-2.19-2.15-2.09-2.86-1.87M20,25l-1.67-1-2.86,1.59A1.49,1.49,0,0,0,17,28.26L20,26.55Zm1.74-1,1.36.79,1.61-.89V22.31l-1.58-.91-1.39.77Zm4.71,2.73,2.26,1.3a1.48,1.48,0,0,0,2-.51,1.49,1.49,0,0,0-.51-2l0,0-2.3-1.33-1.45.8Zm-4.71-8.17,1.42.82,1.55-.86V15.37a1.49,1.49,0,1,0-3,0h0Z" fill="#fff"/></g><path id="Path_436" data-name="Path 436" d="M71,5.25H63.52L59,21.14,54.38,5.25H47.22L55,29.52V41.34H63V29.44L71,5.25" fill="#d52b1e"/><path id="Path_437" data-name="Path 437" d="M78.9,33l-1.38,8.35H70.19L76.85,5.25h9.79L93,41.34H85.74L84.51,33h-5.6m2.72-19.43-2,12.83h4Z" fill="#d52b1e" fill-rule="evenodd"/><path id="Path_438" data-name="Path 438" d="M97.1,5.25V41.34h6.82v-23l4.12,23h4.2l4.19-23.24V41.33h6.84V5.25h-10l-3,17-3.13-17h-10" fill="#d52b1e"/><path id="Path_439" data-name="Path 439" d="M136.05,33l-1.39,8.35h-7.33L134,5.25h9.79l6.34,36.09h-7.23L141.65,33h-5.6m2.72-19.43-2,12.83h4Z" fill="#d52b1e" fill-rule="evenodd"/><path id="Path_440" data-name="Path 440" d="M154.14,5.25V41.34h7.4V26.15h6.59V41.34h7.41V5.25h-7.41v14h-6.59v-14h-7.4" fill="#d52b1e"/><path id="Path_441" data-name="Path 441" d="M188,32.93l-1.39,8.35h-7.33L186,5.2h9.79l6.34,36.08h-7.24l-1.24-8.35H188m2.72-19.43-2,12.84h4Z" fill="#d52b1e" fill-rule="evenodd"/><g id="Group_1276" data-name="Group 1276"><path id="Path_452" data-name="Path 452" d="M252.75.5A22.5,22.5,0,1,0,275.25,23,22.5,22.5,0,0,0,252.75.5h0m0,42.46a20,20,0,1,1,20-20,20,20,0,0,1-20,20" fill="#fff"/><path id="Path_453" data-name="Path 453" d="M269.1,32.06l-3.27-3.81a.53.53,0,0,0-.14-.12.58.58,0,0,0-.53,0,1.75,1.75,0,0,1-2.32-.83,1.47,1.47,0,0,1-.13-.42h0a4.4,4.4,0,0,0-2.14-3L259.11,23l8.32-4.81-1-1.78-9.35,5.39-1.12-.65V19.87l9.35-5.4-1-1.79-8.32,4.8V15.8a4.37,4.37,0,0,0-1.55-3.35A1.75,1.75,0,0,1,254.2,10a1.9,1.9,0,0,1,.33-.3.56.56,0,0,0,.24-.46.58.58,0,0,0,0-.19l-1.66-4.73a.36.36,0,0,0-.45-.22.33.33,0,0,0-.21.22l-1.67,4.74a.57.57,0,0,0,0,.18.56.56,0,0,0,.24.46h0a1.75,1.75,0,0,1,.45,2.42,2,2,0,0,1-.3.34,4.41,4.41,0,0,0-1.55,3.35v1.69l-8.32-4.8-1,1.78,9.34,5.39v1.3l-1.12.65-9.35-5.4-1,1.78L246.38,23l-1.46.84a4.36,4.36,0,0,0-2.13,3h0a1.74,1.74,0,0,1-2,1.4,1.36,1.36,0,0,1-.43-.14.58.58,0,0,0-.53,0,.53.53,0,0,0-.14.12l-3.27,3.81a.38.38,0,0,0,0,.41.37.37,0,0,0,.37.16l4.94-.92a.36.36,0,0,0,.17-.07.55.55,0,0,0,.28-.44A1.74,1.74,0,0,1,244,29.6a1.64,1.64,0,0,1,.44.09,4.4,4.4,0,0,0,3.68-.34l1.46-.84v9.6h2.06V27.32l1.12-.64,1.13.64v10.8h2.06v-9.6l1.46.84a4.38,4.38,0,0,0,3.67.34,1.74,1.74,0,0,1,2.22,1.07,1.64,1.64,0,0,1,.09.44.58.58,0,0,0,.28.44l.18.07,4.93.92a.34.34,0,0,0,.37-.17.33.33,0,0,0,0-.4m-19.53-5.93-2.74,1.58a1.12,1.12,0,0,1-1.12-1.95l2.74-1.58,1.13.65Zm2.06-10.63a1.13,1.13,0,0,1,1.13-1.12,1.11,1.11,0,0,1,1.12,1.12h0v3.17l-1.12.65-1.13-.65ZM254,23.75l-1.29.74-1.3-.74v-1.5l1.3-.74,1.29.74Zm6.17,3.56a1.13,1.13,0,0,1-1.54.41l-2.74-1.58v-1.3l1.12-.65,2.75,1.58a1.14,1.14,0,0,1,.41,1.54" fill="#fff"/></g><g id="yamaha"><path id="Path_416" data-name="Path 416" d="M390.08,19h-6.89V5.19h-6.3v36.1h6.3V25.43h6.89V41.28h6.44V5.18h-6.44Z" fill="#fff"/><path id="Path_417" data-name="Path 417" d="M292.7,5.19,288,19.25l-4.3-14.06h-6.28l7,22.13v14h7V26.6l7.24-21.41Z" fill="#fff"/><path id="Path_418" data-name="Path 418" d="M335.29,22.36l-3.5-17.17H322v36.1h5.64V14.08l4.81,23.65h5.26l4.27-24v27.6h6.6V5.19H338.31Z" fill="#fff"/><path id="Path_419" data-name="Path 419" d="M415.82,5.19h-9.73l-6.57,36.1h5.83l1.39-8.4H414l1.36,8.4h6.41Zm-8.08,21.68,2.67-16.15L413,26.87Z" fill="#fff"/><path id="Path_420" data-name="Path 420" d="M358.14,5.19l-6.57,36.1h5.82l1.4-8.4H366l1.35,8.4h6.42l-5.93-36.1Zm1.64,21.68,2.68-16.15,2.6,16.15Z" fill="#fff"/><path id="Path_421" data-name="Path 421" d="M303.09,5.19l-6.57,36.1h5.82l1.4-8.4H311l1.35,8.4h6.42l-5.93-36.1Zm1.65,21.68,2.68-16.15L310,26.87Z" fill="#fff"/></g></g></svg>