<svg xmlns="http://www.w3.org/2000/svg" viewBox="0 0 422 85"><title>YamahaFinance Logos_updated-0207_onBlack</title><g id="Layer_1" data-name="Layer 1"><g id="Symbol"><path id="Path_442" data-name="Path 442" d="M.25,23a22.5,22.5,0,1,1,22.5,22.5h0A22.5,22.5,0,0,1,.25,23" fill="#d52b1e"/><path id="Path_443" data-name="Path 443" d="M1.65,23a21.1,21.1,0,1,1,21.1,21.09h0A21.1,21.1,0,0,1,1.65,23" fill="#fff"/><path id="Path_444" data-name="Path 444" d="M5.85,23a16.9,16.9,0,1,1,16.9,16.9h0A16.9,16.9,0,0,1,5.85,23" fill="#d52b1e"/><path id="Path_445" data-name="Path 445" d="M30.86,29.56a2.44,2.44,0,0,1-.44.19,3.22,3.22,0,0,1-2.66-.26l-1.28-.74v8.73H24.75V27.75l-1.62-.93-1.36.75v9.91H20V28.53l-2.12,1.18a3.23,3.23,0,0,1-3.17,0c-.72-.22-2.05-.28-2.83,1.83L5.83,32.7l4.23-4.52c2.27.46,2.89-.78,3.07-1.5a3.55,3.55,0,0,1,.06-.47,3.24,3.24,0,0,1,1.59-2.14l1.83-1L8.73,18.51,9.6,17l8.78,5.07L20,21.16V19.59l-8.94-5.16L12,12.92,20,17.58V15.5a3.21,3.21,0,0,1,1.56-2.76c.54-.52,1.24-1.66-.23-3.36l1.91-5.89,1.91,5.89c-1.5,1.75-.72,2.9-.17,3.4a3.25,3.25,0,0,1,1.48,2.72v2.08L34,13.41l.84,1.52-8.36,4.63v1.75l1.47.84,8.33-4.62.84,1.53-7.41,4.11,1.28.74a3.22,3.22,0,0,1,1.6,2.72c.19.74.82,1.9,3,1.49l4.15,4.6-6.06-1.29C33,29.24,31.56,29.34,30.86,29.56ZM20,25l-1.67-1-2.85,1.59A1.49,1.49,0,0,0,17,28.26L20,26.55Zm1.74-1,1.37.79,1.61-.89V22.31l-1.58-.91-1.4.77Zm4.72,2.73,2.26,1.3a1.48,1.48,0,0,0,2-.51,1.49,1.49,0,0,0-.51-2l0,0-2.3-1.33-1.45.8Zm-4.71-8.17,1.42.82,1.55-.86V15.37a1.49,1.49,0,1,0-3,0h0Z" fill="#e50019"/><path id="Path_446" data-name="Path 446" d="M30.86,29.56a2.44,2.44,0,0,1-.44.19,3.22,3.22,0,0,1-2.66-.26l-1.28-.74v8.73H24.75V27.75l-1.62-.93-1.36.75v9.91H20V28.53l-2.12,1.18a3.23,3.23,0,0,1-3.17,0c-.72-.22-2.05-.28-2.83,1.83L5.83,32.7l4.23-4.52c2.27.46,2.89-.78,3.07-1.5a3.55,3.55,0,0,1,.06-.47,3.24,3.24,0,0,1,1.59-2.14l1.83-1L8.73,18.51,9.6,17l8.78,5.07L20,21.16V19.59l-8.94-5.16L12,12.92,20,17.58V15.5a3.21,3.21,0,0,1,1.56-2.76c.54-.52,1.24-1.66-.23-3.36l1.91-5.89,1.91,5.89c-1.5,1.75-.72,2.9-.17,3.4a3.25,3.25,0,0,1,1.48,2.72v2.08L34,13.41l.84,1.52-8.36,4.63v1.75l1.47.84,8.33-4.62.84,1.53-7.41,4.11,1.28.74a3.22,3.22,0,0,1,1.6,2.72c.19.74.82,1.9,3,1.49l4.15,4.6-6.06-1.29C33,29.24,31.56,29.34,30.86,29.56ZM20,25l-1.67-1-2.85,1.59A1.49,1.49,0,0,0,17,28.26L20,26.55Zm1.74-1,1.37.79,1.61-.89V22.31l-1.58-.91-1.4.77Zm4.72,2.73,2.26,1.3a1.48,1.48,0,0,0,2-.51,1.49,1.49,0,0,0-.51-2l0,0-2.3-1.33-1.45.8Zm-4.71-8.17,1.42.82,1.55-.86V15.37a1.49,1.49,0,1,0-3,0h0Z" fill="none" stroke="#d52b1e" stroke-miterlimit="3.86" stroke-width="0.91"/><path id="Path_447" data-name="Path 447" d="M30.86,29.56a2.44,2.44,0,0,1-.44.19,3.22,3.22,0,0,1-2.66-.26l-1.28-.74v8.73H24.75V27.75l-1.62-.93-1.36.75v9.91H20V28.53l-2.12,1.18a3.23,3.23,0,0,1-3.17,0c-.72-.22-2.05-.28-2.83,1.83L5.83,32.7l4.23-4.52c2.27.46,2.89-.78,3.07-1.5a3.55,3.55,0,0,1,.06-.47,3.24,3.24,0,0,1,1.59-2.14l1.83-1L8.73,18.51,9.6,17l8.78,5.07L20,21.16V19.59l-8.94-5.16L12,12.92,20,17.58V15.5a3.21,3.21,0,0,1,1.56-2.76c.54-.52,1.24-1.66-.23-3.36l1.91-5.89,1.91,5.89c-1.5,1.75-.72,2.9-.17,3.4a3.25,3.25,0,0,1,1.48,2.72v2.08L34,13.41l.84,1.52-8.36,4.63v1.75l1.47.84,8.33-4.62.84,1.53-7.41,4.11,1.28.74a3.22,3.22,0,0,1,1.6,2.72c.19.74.82,1.9,3,1.49l4.15,4.6-6.06-1.29c-.76-2.19-2.15-2.09-2.86-1.87M20,25l-1.67-1-2.86,1.59A1.49,1.49,0,0,0,17,28.26L20,26.55Zm1.74-1,1.36.79,1.61-.89V22.31l-1.58-.91-1.39.77Zm4.71,2.73,2.26,1.3a1.48,1.48,0,0,0,2-.51,1.49,1.49,0,0,0-.51-2l0,0-2.3-1.33-1.45.8Zm-4.71-8.17,1.42.82,1.55-.86V15.37a1.49,1.49,0,1,0-3,0h0Z" fill="#fff"/></g><path id="Path_436" data-name="Path 436" d="M71,5.25H63.52L59,21.14,54.38,5.25H47.22L55,29.52V41.34H63V29.44L71,5.25" fill="#d52b1e"/><path id="Path_437" data-name="Path 437" d="M78.9,33l-1.38,8.35H70.19L76.85,5.25h9.79L93,41.34H85.74L84.51,33h-5.6m2.72-19.43-2,12.83h4Z" fill="#d52b1e" fill-rule="evenodd"/><path id="Path_438" data-name="Path 438" d="M97.1,5.25V41.34h6.82v-23l4.12,23h4.2l4.19-23.24V41.33h6.84V5.25h-10l-3,17-3.13-17h-10" fill="#d52b1e"/><path id="Path_439" data-name="Path 439" d="M136.05,33l-1.39,8.35h-7.33L134,5.25h9.79l6.34,36.09h-7.23L141.65,33h-5.6m2.72-19.43-2,12.83h4Z" fill="#d52b1e" fill-rule="evenodd"/><path id="Path_440" data-name="Path 440" d="M154.14,5.25V41.34h7.4V26.15h6.59V41.34h7.41V5.25h-7.41v14h-6.59v-14h-7.4" fill="#d52b1e"/><path id="Path_441" data-name="Path 441" d="M188,32.93l-1.39,8.35h-7.33L186,5.2h9.79l6.34,36.08h-7.24l-1.24-8.35H188m2.72-19.43-2,12.84h4Z" fill="#d52b1e" fill-rule="evenodd"/><g id="Group_1276" data-name="Group 1276"><path id="Path_452" data-name="Path 452" d="M252.75.5A22.5,22.5,0,1,0,275.25,23,22.5,22.5,0,0,0,252.75.5h0m0,42.46a20,20,0,1,1,20-20,20,20,0,0,1-20,20" fill="#fff"/><path id="Path_453" data-name="Path 453" d="M269.1,32.06l-3.27-3.81a.53.53,0,0,0-.14-.12.58.58,0,0,0-.53,0,1.75,1.75,0,0,1-2.32-.83,1.47,1.47,0,0,1-.13-.42h0a4.4,4.4,0,0,0-2.14-3L259.11,23l8.32-4.81-1-1.78-9.35,5.39-1.12-.65V19.87l9.35-5.4-1-1.79-8.32,4.8V15.8a4.37,4.37,0,0,0-1.55-3.35A1.75,1.75,0,0,1,254.2,10a1.9,1.9,0,0,1,.33-.3.56.56,0,0,0,.24-.46.58.58,0,0,0,0-.19l-1.66-4.73a.36.36,0,0,0-.45-.22.33.33,0,0,0-.21.22l-1.67,4.74a.57.57,0,0,0,0,.18.56.56,0,0,0,.24.46h0a1.75,1.75,0,0,1,.45,2.42,2,2,0,0,1-.3.34,4.41,4.41,0,0,0-1.55,3.35v1.69l-8.32-4.8-1,1.78,9.34,5.39v1.3l-1.12.65-9.35-5.4-1,1.78L246.38,23l-1.46.84a4.36,4.36,0,0,0-2.13,3h0a1.74,1.74,0,0,1-2,1.4,1.36,1.36,0,0,1-.43-.14.58.58,0,0,0-.53,0,.53.53,0,0,0-.14.12l-3.27,3.81a.38.38,0,0,0,0,.41.37.37,0,0,0,.37.16l4.94-.92a.36.36,0,0,0,.17-.07.55.55,0,0,0,.28-.44A1.74,1.74,0,0,1,244,29.6a1.64,1.64,0,0,1,.44.09,4.4,4.4,0,0,0,3.68-.34l1.46-.84v9.6h2.06V27.32l1.12-.64,1.13.64v10.8h2.06v-9.6l1.46.84a4.38,4.38,0,0,0,3.67.34,1.74,1.74,0,0,1,2.22,1.07,1.64,1.64,0,0,1,.09.44.58.58,0,0,0,.28.44l.18.07,4.93.92a.34.34,0,0,0,.37-.17.33.33,0,0,0,0-.4m-19.53-5.93-2.74,1.58a1.12,1.12,0,0,1-1.12-1.95l2.74-1.58,1.13.65Zm2.06-10.63a1.13,1.13,0,0,1,1.13-1.12,1.11,1.11,0,0,1,1.12,1.12h0v3.17l-1.12.65-1.13-.65ZM254,23.75l-1.29.74-1.3-.74v-1.5l1.3-.74,1.29.74Zm6.17,3.56a1.13,1.13,0,0,1-1.54.41l-2.74-1.58v-1.3l1.12-.65,2.75,1.58a1.14,1.14,0,0,1,.41,1.54" fill="#fff"/></g><g id="yamaha"><path id="Path_416" data-name="Path 416" d="M390.08,19h-6.89V5.19h-6.3v36.1h6.3V25.43h6.89V41.28h6.44V5.18h-6.44Z" fill="#fff"/><path id="Path_417" data-name="Path 417" d="M292.7,5.19,288,19.25l-4.3-14.06h-6.28l7,22.13v14h7V26.6l7.24-21.41Z" fill="#fff"/><path id="Path_418" data-name="Path 418" d="M335.29,22.36l-3.5-17.17H322v36.1h5.64V14.08l4.81,23.65h5.26l4.27-24v27.6h6.6V5.19H338.31Z" fill="#fff"/><path id="Path_419" data-name="Path 419" d="M415.82,5.19h-9.73l-6.57,36.1h5.83l1.39-8.4H414l1.36,8.4h6.41Zm-8.08,21.68,2.67-16.15L413,26.87Z" fill="#fff"/><path id="Path_420" data-name="Path 420" d="M358.14,5.19l-6.57,36.1h5.82l1.4-8.4H366l1.35,8.4h6.42l-5.93-36.1Zm1.64,21.68,2.68-16.15,2.6,16.15Z" fill="#fff"/><path id="Path_421" data-name="Path 421" d="M303.09,5.19l-6.57,36.1h5.82l1.4-8.4H311l1.35,8.4h6.42l-5.93-36.1Zm1.65,21.68,2.68-16.15L310,26.87Z" fill="#fff"/></g><path id="Path_264" data-name="Path 264" d="M108.93,49.62H99.59v5.67H108v1.83H99.59v8.06H97V47.79h11.92Z" fill="#fff"/><rect id="Rectangle_100" data-name="Rectangle 100" x="111.97" y="47.79" width="2.59" height="17.39" fill="#fff"/><path id="Path_265" data-name="Path 265" d="M133.9,65.18h-3.13l-9.44-14.6v14.6h-2.27V47.79h3.12l9.44,14.36V47.79h2.27Z" fill="#fff"/><path id="Path_266" data-name="Path 266" d="M153.17,65.18h-2.7l-2-5.28h-7.43l-2,5.28h-2.56l6.9-17.39h3Zm-5.32-7.07-2.94-7.85h-.24l-2.94,7.85Z" fill="#fff"/><path id="Path_267" data-name="Path 267" d="M170.66,65.18h-3.13l-9.44-14.6v14.6h-2.27V47.79H159l9.43,14.36V47.79h2.28Z" fill="#fff"/><path id="Path_268" data-name="Path 268" d="M186.78,64.94a23.41,23.41,0,0,1-4.87.51q-7.29,0-7.3-4.72V52.48q0-5,7.3-5a22.38,22.38,0,0,1,4.76.51v1.93a19.73,19.73,0,0,0-4.71-.65,13.57,13.57,0,0,0-1.79.12,6.75,6.75,0,0,0-1.52.43,2.31,2.31,0,0,0-1.15,1,3.11,3.11,0,0,0-.41,1.65V60.6q0,3,5,3a19.08,19.08,0,0,0,4.7-.64Z" fill="#fff"/><path id="Path_269" data-name="Path 269" d="M202.15,65.18H190.23V47.79h11.65v1.83h-9.07v5.67H201v1.83h-8.18v6.24h9.33Z" fill="#fff"/><g id="Group_743" data-name="Group 743"><path id="Path_347" data-name="Path 347" d="M164.74,81.7v.76a.25.25,0,0,1-.18.25,5.56,5.56,0,0,1-2.31.44c-2.79,0-4.07-1.67-4.07-4.2A3.63,3.63,0,0,1,161.5,75a2.29,2.29,0,0,1,.37,0c2.53,0,3.41,1.75,3.47,4.11a.27.27,0,0,1-.27.27H160a.26.26,0,0,0-.27.26v0A2.55,2.55,0,0,0,162.32,82a4.78,4.78,0,0,0,2-.53.27.27,0,0,1,.39.24M160,78.34h3.48a.27.27,0,0,0,.27-.26v0a1.93,1.93,0,0,0-1.95-1.87A2.08,2.08,0,0,0,159.78,78a.27.27,0,0,0,.21.32h0" fill="#fff"/><path id="Path_348" data-name="Path 348" d="M166.25,82.56v-.73a.27.27,0,0,1,.27-.27.2.2,0,0,1,.11,0,4.44,4.44,0,0,0,1.52.4c.66,0,1.48-.27,1.48-1.11,0-1.42-3.41-1.3-3.41-3.48,0-1.61,1.22-2.39,2.77-2.39a5.89,5.89,0,0,1,1.62.25.27.27,0,0,1,.19.25v.7a.26.26,0,0,1-.26.26h-.09a5.31,5.31,0,0,0-1.3-.29c-.75,0-1.39.3-1.39.94,0,1.59,3.41,1.13,3.41,3.61a2.45,2.45,0,0,1-2.49,2.44h-.26a4.82,4.82,0,0,1-2-.36.25.25,0,0,1-.15-.23" fill="#fff"/><path id="Path_349" data-name="Path 349" d="M181,76.66v-.82a.18.18,0,0,1,.08-.15,5.06,5.06,0,0,1,2.52-.68c2.25,0,3.11,1.1,3.11,3.22V82.8a.17.17,0,0,1-.17.17h-.9a.17.17,0,0,1-.17-.17v-.62a.07.07,0,0,0-.07-.07.05.05,0,0,0,0,0,2.93,2.93,0,0,1-2.35,1c-1.7,0-2.89-.73-2.89-2.42,0-2,2.17-2.57,3.66-2.57.51,0,.88,0,1.35,0a.19.19,0,0,0,.19-.17h0c0-1.36-.69-2-2.46-1.82a4.41,4.41,0,0,0-1.6.62.18.18,0,0,1-.23-.07.24.24,0,0,1,0-.08M185.3,80v-.53a.17.17,0,0,0-.17-.16l-.76,0c-.79,0-2.73.12-2.73,1.49A1.38,1.38,0,0,0,183.1,82a2,2,0,0,0,2.18-1.74,1.51,1.51,0,0,0,0-.3" fill="#fff"/><path id="Path_350" data-name="Path 350" d="M187.67,82.7V75.46a.27.27,0,0,1,.27-.27h.84a.27.27,0,0,1,.27.27v.76a0,0,0,0,0,0,0l.05,0A2.83,2.83,0,0,1,191.6,75c2,0,3,1.25,3,3.34V82.7a.27.27,0,0,1-.27.27h-.86a.27.27,0,0,1-.26-.27h0V78.94c0-1.81-.4-2.69-1.66-2.77h0c-1.65,0-2.38,1.32-2.38,3.2V82.7a.27.27,0,0,1-.27.27h-.89a.27.27,0,0,1-.27-.27h0" fill="#fff"/><path id="Path_351" data-name="Path 351" d="M195.53,82.7V71.3a.26.26,0,0,1,.26-.26h.84a.27.27,0,0,1,.27.26h0v6.57a.2.2,0,0,0,.2.2.2.2,0,0,0,.14-.06L200,75.27a.27.27,0,0,1,.19-.08h1.2a.27.27,0,0,1,.27.26.25.25,0,0,1-.09.2l-3,2.83a.24.24,0,0,0,0,.33h0l3.53,3.7a.26.26,0,0,1-.19.45h-1.34a.25.25,0,0,1-.2-.09l-3.1-3.51a.19.19,0,0,0-.34.13v3.2a.27.27,0,0,1-.27.27h-.83a.27.27,0,0,1-.27-.27h0" fill="#fff"/><path id="Path_352" data-name="Path 352" d="M177.89,79.81c0-1.59-1.17-2-2.67-2.13a.26.26,0,0,1-.26-.26v-.53a.27.27,0,0,1,.26-.27c1.47-.08,2.47-.48,2.47-2s-1.28-1.81-2.24-1.81h-1.57a.27.27,0,0,0-.27.27V81.5a.27.27,0,0,0,.27.26H175c1.46,0,2.93-.3,2.93-2m-5.74,2.89V71.92a.26.26,0,0,1,.27-.26h2.68c2.37,0,4,.76,4,2.85a2.68,2.68,0,0,1-1.56,2.43c-.2.11-.18.31,0,.4A2.78,2.78,0,0,1,179.4,80c0,2.43-2,3-4.35,3h-2.63a.27.27,0,0,1-.27-.27" fill="#fff"/><path id="Path_353" data-name="Path 353" d="M154.18,70.78h4.91a.16.16,0,0,1,.16.15s0,0,0,.06l-1.63,4.11a.2.2,0,0,0,0,.11l.5,1.3a.17.17,0,0,0,.21.09.2.2,0,0,0,.09-.09l2.65-6.72a.16.16,0,0,0-.09-.2l-.06,0h-7.5a.16.16,0,0,0-.15.16.17.17,0,0,0,0,.1l.77.89a.14.14,0,0,0,.12.06" fill="#fff"/><path id="Path_354" data-name="Path 354" d="M153.89,79l2.21-5.75a.4.4,0,0,0-.23-.52.32.32,0,0,0-.14,0h-9a.39.39,0,0,0-.4.39.4.4,0,0,0,0,.15L148.59,79a.4.4,0,0,0,.52.23.37.37,0,0,0,.23-.23l1.51-4a.4.4,0,0,1,.75,0l1.54,4a.41.41,0,0,0,.52.23.47.47,0,0,0,.23-.23m-.74,3.89L151.6,78.8a.41.41,0,0,0-.52-.23.4.4,0,0,0-.23.23l-1.54,4.09a.4.4,0,0,1-.52.23.37.37,0,0,1-.23-.23l-4.29-11a.41.41,0,0,1,.23-.52l.15,0H157.8a.39.39,0,0,1,.4.39.4.4,0,0,1,0,.15l-4.26,11a.4.4,0,0,1-.52.23.37.37,0,0,1-.23-.23" fill="#fff"/><path id="Path_355" data-name="Path 355" d="M102.07,82.94h-.43c-.13,0-.16,0-.21-.14l-.68-1.91H98.36l-.71,1.92c-.05.11-.08.13-.19.13h-.4a.06.06,0,0,1-.06,0v0a.29.29,0,0,1,0-.09l2.32-6a.12.12,0,0,1,.12-.09h.32c.06,0,.08,0,.11.08l2.27,6s0,0,0,.07-.07.08-.11.08m-2.49-5.35-1,2.83h2.06Z" fill="#fff"/><path id="Path_356" data-name="Path 356" d="M106.7,83a1.6,1.6,0,0,1-1.26-.57v2.3c0,.12-.07.15-.17.15H105c-.1,0-.14-.06-.14-.16V78.68c0-.11,0-.14.14-.14h.23c.13,0,.19,0,.19.16v.36a1.89,1.89,0,0,1,1.4-.61c1.06,0,1.84.75,1.84,2.26A2,2,0,0,1,106.88,83l-.18,0m0-4.12a1.66,1.66,0,0,0-1.28.68v2.23a1.42,1.42,0,0,0,1.22.75c.91,0,1.4-.76,1.4-1.85s-.57-1.81-1.34-1.81" fill="#fff"/><path id="Path_357" data-name="Path 357" d="M111.54,78.88a.08.08,0,0,1-.07.07h0l-.29,0a1.25,1.25,0,0,0-.93.61v3.25c0,.11,0,.17-.14.17h-.29c-.1,0-.15-.06-.15-.17V78.7c0-.11,0-.16.15-.16h.28c.1,0,.14,0,.14.16V79a1.28,1.28,0,0,1,1-.57l.27,0a.09.09,0,0,1,.07.09h0Z" fill="#fff"/><path id="Path_358" data-name="Path 358" d="M114,83c-1.36,0-2-1-2-2.29a2.05,2.05,0,0,1,1.79-2.27h.23c1.37,0,2,1,2,2.28a2.05,2.05,0,0,1-1.8,2.27l-.24,0m0-4.12c-1.08,0-1.42,1-1.42,1.81s.31,1.87,1.38,1.87,1.43-.92,1.43-1.83-.35-1.85-1.39-1.85" fill="#fff"/><path id="Path_359" data-name="Path 359" d="M120.53,82.94h-.27c-.13,0-.17,0-.17-.17v-.38a1.89,1.89,0,0,1-1.4.63c-1.31,0-1.85-1.09-1.85-2.27a2.07,2.07,0,0,1,1.79-2.29h.2a1.62,1.62,0,0,1,1.23.56V76.68c0-.11,0-.16.12-.17l.33,0h0c.08,0,.1,0,.1.15v6.15c0,.1,0,.17-.1.17m-.48-3.29a1.41,1.41,0,0,0-1.19-.75c-.87,0-1.43.68-1.43,1.83s.51,1.83,1.34,1.83a1.64,1.64,0,0,0,1.28-.69Z" fill="#fff"/><path id="Path_360" data-name="Path 360" d="M125.16,82.94h-.28c-.11,0-.15-.06-.15-.17v-.32a2.12,2.12,0,0,1-1.43.57,1.4,1.4,0,0,1-1-.37,1.78,1.78,0,0,1-.41-1.29V78.71c0-.12.05-.17.15-.17h.29c.1,0,.15.06.15.17v2.57a1.48,1.48,0,0,0,.26,1,1,1,0,0,0,.74.27,2.09,2.09,0,0,0,1.28-.61V78.71c0-.12,0-.17.15-.17h.29c.1,0,.14.06.14.17v4.07c0,.1,0,.16-.14.16" fill="#fff"/><path id="Path_361" data-name="Path 361" d="M129.54,82.76a2.77,2.77,0,0,1-1.17.26c-1.44,0-2.09-1-2.09-2.3a2.08,2.08,0,0,1,1.88-2.26h.25a2.61,2.61,0,0,1,1.13.27c.06,0,.09.06.09.1a.64.64,0,0,1,0,.07l-.06.17s0,.1-.09.1l-.06,0a2.31,2.31,0,0,0-1-.25c-.91,0-1.51.71-1.51,1.81s.39,1.88,1.48,1.88a2.79,2.79,0,0,0,1.06-.22l.06,0a.1.1,0,0,1,.09.08l0,.17s0,0,0,.07,0,.07-.1.1" fill="#fff"/><path id="Path_362" data-name="Path 362" d="M132.5,82.88a2.36,2.36,0,0,1-.74.14,1.34,1.34,0,0,1-.94-.31,1.5,1.5,0,0,1-.27-1.14V79H130c-.08,0-.1,0-.1-.09v-.25c0-.08,0-.09.08-.09h.56V77.47c0-.11,0-.15.11-.17l.32,0h0c.07,0,.11,0,.11.14v1.13h1.1c.07,0,.1,0,.1.11v.23c0,.08,0,.09-.11.09h-1.09v2.7a1,1,0,0,0,.18.73.74.74,0,0,0,.53.17,2.13,2.13,0,0,0,.57-.1h.07c.06,0,.06,0,.07.06l0,.23v0s0,.07-.09.1" fill="#fff"/><path id="Path_363" data-name="Path 363" d="M137.07,83c-1.36,0-2-1-2-2.29a2.05,2.05,0,0,1,1.79-2.27h.23c1.37,0,2,1,2,2.28a2.05,2.05,0,0,1-1.8,2.27l-.24,0m0-4.12c-1.08,0-1.42,1-1.42,1.81s.31,1.87,1.38,1.87,1.43-.92,1.43-1.83-.35-1.85-1.39-1.85" fill="#fff"/><path id="Path_364" data-name="Path 364" d="M142.53,76.68l-.06.24a.06.06,0,0,1-.06.06l-.08,0a1.63,1.63,0,0,0-.59-.11c-.66,0-.86.42-.86,1.25v.44h1.18c.08,0,.11,0,.11.09v.24c0,.08,0,.1-.1.1h-1.19v3.8c0,.11,0,.17-.15.17h-.29c-.1,0-.14-.06-.14-.17V79h-.56c-.06,0-.08,0-.08-.1v-.24c0-.07,0-.09.1-.09h.54v-.13a5.77,5.77,0,0,1,0-.72,1.31,1.31,0,0,1,1.31-1.3h.07a2.69,2.69,0,0,1,.74.14c.07,0,.1.06.1.11s0,0,0,0" fill="#fff"/></g><path id="Path_264-2" data-name="Path 264" d="M328.93,49.62h-9.34v5.67H328v1.83h-8.45v8.06H317V47.79h11.92Z" fill="#fff"/><rect id="Rectangle_100-2" data-name="Rectangle 100" x="331.97" y="47.79" width="2.59" height="17.39" fill="#fff"/><path id="Path_265-2" data-name="Path 265" d="M353.9,65.18h-3.13l-9.44-14.6v14.6h-2.27V47.79h3.12l9.44,14.36V47.79h2.27Z" fill="#fff"/><path id="Path_266-2" data-name="Path 266" d="M373.17,65.18h-2.7l-2-5.28h-7.43l-2,5.28h-2.56l6.9-17.39h3Zm-5.32-7.07-2.94-7.85h-.24l-2.94,7.85Z" fill="#fff"/><path id="Path_267-2" data-name="Path 267" d="M390.66,65.18h-3.13l-9.44-14.6v14.6h-2.27V47.79H379l9.43,14.36V47.79h2.28Z" fill="#fff"/><path id="Path_268-2" data-name="Path 268" d="M406.78,64.94a23.41,23.41,0,0,1-4.87.51q-7.29,0-7.3-4.72V52.48q0-5,7.3-5a22.38,22.38,0,0,1,4.76.51v1.93a19.73,19.73,0,0,0-4.71-.65,13.57,13.57,0,0,0-1.79.12,6.75,6.75,0,0,0-1.52.43,2.31,2.31,0,0,0-1.15,1,3.11,3.11,0,0,0-.41,1.65V60.6q0,3,5,3a19.08,19.08,0,0,0,4.7-.64Z" fill="#fff"/><path id="Path_269-2" data-name="Path 269" d="M422.15,65.18H410.23V47.79h11.65v1.83h-9.07v5.67H421v1.83h-8.18v6.24h9.33Z" fill="#fff"/><g id="Group_743-2" data-name="Group 743"><path id="Path_347-2" data-name="Path 347" d="M384.74,81.7v.76a.25.25,0,0,1-.18.25,5.56,5.56,0,0,1-2.31.44c-2.79,0-4.07-1.67-4.07-4.2A3.63,3.63,0,0,1,381.5,75a2.29,2.29,0,0,1,.37,0c2.53,0,3.41,1.75,3.47,4.11a.27.27,0,0,1-.27.27H380a.26.26,0,0,0-.27.26v0A2.55,2.55,0,0,0,382.32,82a4.78,4.78,0,0,0,2-.53.27.27,0,0,1,.39.24M380,78.34h3.48a.27.27,0,0,0,.27-.26v0a1.93,1.93,0,0,0-2-1.87A2.08,2.08,0,0,0,379.78,78a.27.27,0,0,0,.21.32H380" fill="#fff"/><path id="Path_348-2" data-name="Path 348" d="M386.25,82.56v-.73a.27.27,0,0,1,.27-.27.2.2,0,0,1,.11,0,4.44,4.44,0,0,0,1.52.4c.66,0,1.48-.27,1.48-1.11,0-1.42-3.41-1.3-3.41-3.48,0-1.61,1.22-2.39,2.77-2.39a5.89,5.89,0,0,1,1.62.25.27.27,0,0,1,.19.25v.7a.26.26,0,0,1-.26.26h-.09a5.31,5.31,0,0,0-1.3-.29c-.75,0-1.39.3-1.39.94,0,1.59,3.41,1.13,3.41,3.61a2.45,2.45,0,0,1-2.49,2.44h-.26a4.82,4.82,0,0,1-2-.36.25.25,0,0,1-.15-.23" fill="#fff"/><path id="Path_349-2" data-name="Path 349" d="M401,76.66v-.82a.18.18,0,0,1,.08-.15,5.06,5.06,0,0,1,2.52-.68c2.25,0,3.11,1.1,3.11,3.22V82.8a.17.17,0,0,1-.17.17h-.9a.17.17,0,0,1-.17-.17v-.62a.07.07,0,0,0-.07-.07.05.05,0,0,0-.05,0,2.93,2.93,0,0,1-2.35,1c-1.7,0-2.89-.73-2.89-2.42,0-2,2.17-2.57,3.66-2.57.51,0,.88,0,1.35,0a.19.19,0,0,0,.19-.17h0c-.05-1.36-.69-2-2.46-1.82a4.41,4.41,0,0,0-1.6.62.18.18,0,0,1-.23-.07.24.24,0,0,1,0-.08M405.3,80v-.53a.17.17,0,0,0-.17-.16l-.76,0c-.79,0-2.73.12-2.73,1.49A1.38,1.38,0,0,0,403.1,82a2,2,0,0,0,2.18-1.74,1.51,1.51,0,0,0,0-.3" fill="#fff"/><path id="Path_350-2" data-name="Path 350" d="M407.67,82.7V75.46a.27.27,0,0,1,.27-.27h.84a.27.27,0,0,1,.27.27v.76a0,0,0,0,0,.05,0l0,0A2.83,2.83,0,0,1,411.6,75c2,0,2.95,1.25,2.95,3.34V82.7a.27.27,0,0,1-.27.27h-.86a.27.27,0,0,1-.26-.27h0V78.94c0-1.81-.4-2.69-1.66-2.77h0c-1.65,0-2.38,1.32-2.38,3.2V82.7a.27.27,0,0,1-.27.27h-.89a.27.27,0,0,1-.27-.27h0" fill="#fff"/><path id="Path_351-2" data-name="Path 351" d="M415.53,82.7V71.3a.26.26,0,0,1,.26-.26h.84a.27.27,0,0,1,.27.26h0v6.57a.2.2,0,0,0,.2.2.2.2,0,0,0,.14-.06L420,75.27a.27.27,0,0,1,.19-.08h1.2a.27.27,0,0,1,.27.26.25.25,0,0,1-.09.2l-3,2.83a.24.24,0,0,0,0,.33h0l3.53,3.7a.26.26,0,0,1-.19.45h-1.34a.25.25,0,0,1-.2-.09l-3.1-3.51a.19.19,0,0,0-.34.13v3.2a.27.27,0,0,1-.27.27h-.83a.27.27,0,0,1-.27-.27h0" fill="#fff"/><path id="Path_352-2" data-name="Path 352" d="M397.89,79.81c0-1.59-1.17-2-2.67-2.13a.26.26,0,0,1-.26-.26v-.53a.27.27,0,0,1,.26-.27c1.47-.08,2.47-.48,2.47-2s-1.28-1.81-2.24-1.81h-1.57a.27.27,0,0,0-.27.27V81.5a.27.27,0,0,0,.27.26H395c1.46,0,2.93-.3,2.93-2m-5.74,2.89V71.92a.26.26,0,0,1,.27-.26h2.68c2.37,0,4,.76,4,2.85a2.68,2.68,0,0,1-1.56,2.43c-.2.11-.18.31,0,.4A2.78,2.78,0,0,1,399.4,80c0,2.43-2,3-4.35,3h-2.63a.27.27,0,0,1-.27-.27" fill="#fff"/><path id="Path_353-2" data-name="Path 353" d="M374.18,70.78h4.91a.16.16,0,0,1,.16.15s0,0,0,.06l-1.63,4.11a.2.2,0,0,0,0,.11l.5,1.3a.17.17,0,0,0,.21.09.2.2,0,0,0,.09-.09l2.65-6.72a.16.16,0,0,0-.09-.2l-.06,0h-7.5a.16.16,0,0,0-.15.16.17.17,0,0,0,0,.1l.77.89a.14.14,0,0,0,.12.06" fill="#fff"/><path id="Path_354-2" data-name="Path 354" d="M373.89,79l2.21-5.75a.4.4,0,0,0-.23-.52.32.32,0,0,0-.14,0h-9a.39.39,0,0,0-.4.39.4.4,0,0,0,0,.15L368.59,79a.4.4,0,0,0,.52.23.37.37,0,0,0,.23-.23l1.51-4a.4.4,0,0,1,.75,0l1.54,4a.41.41,0,0,0,.52.23.47.47,0,0,0,.23-.23m-.74,3.89L371.6,78.8a.41.41,0,0,0-.52-.23.4.4,0,0,0-.23.23l-1.54,4.09a.4.4,0,0,1-.52.23.37.37,0,0,1-.23-.23l-4.29-11a.41.41,0,0,1,.23-.52l.15,0H377.8a.39.39,0,0,1,.4.39.4.4,0,0,1,0,.15l-4.26,11a.4.4,0,0,1-.52.23.37.37,0,0,1-.23-.23" fill="#fff"/><path id="Path_355-2" data-name="Path 355" d="M322.07,82.94h-.43c-.13,0-.16,0-.21-.14l-.68-1.91h-2.39l-.71,1.92c0,.11-.08.13-.19.13h-.4a.06.06,0,0,1-.06,0v0a.29.29,0,0,1,0-.09l2.32-6a.12.12,0,0,1,.12-.09h.32c.06,0,.08,0,.11.08l2.27,6s0,0,0,.07-.07.08-.11.08m-2.49-5.35-1.05,2.83h2.06Z" fill="#fff"/><path id="Path_356-2" data-name="Path 356" d="M326.7,83a1.6,1.6,0,0,1-1.26-.57v2.3c0,.12-.07.15-.17.15H325c-.1,0-.14-.06-.14-.16V78.68c0-.11,0-.14.14-.14h.23c.13,0,.19,0,.19.16v.36a1.89,1.89,0,0,1,1.4-.61c1.06,0,1.84.75,1.84,2.26A2,2,0,0,1,326.88,83l-.18,0m0-4.12a1.66,1.66,0,0,0-1.28.68v2.23a1.42,1.42,0,0,0,1.22.75c.91,0,1.4-.76,1.4-1.85s-.57-1.81-1.34-1.81" fill="#fff"/><path id="Path_357-2" data-name="Path 357" d="M331.54,78.88a.08.08,0,0,1-.07.07h0l-.29,0a1.25,1.25,0,0,0-.93.61v3.25c0,.11,0,.17-.14.17h-.29c-.1,0-.15-.06-.15-.17V78.7c0-.11.05-.16.15-.16h.28c.1,0,.14,0,.14.16V79a1.28,1.28,0,0,1,1-.57l.27,0a.09.09,0,0,1,.07.09h0Z" fill="#fff"/><path id="Path_358-2" data-name="Path 358" d="M334,83c-1.36,0-2-1-2-2.29a2.05,2.05,0,0,1,1.79-2.27h.23c1.37,0,2,1,2,2.28a2.05,2.05,0,0,1-1.8,2.27l-.24,0m.05-4.12c-1.08,0-1.42,1-1.42,1.81s.31,1.87,1.38,1.87,1.43-.92,1.43-1.83-.35-1.85-1.39-1.85" fill="#fff"/><path id="Path_359-2" data-name="Path 359" d="M340.53,82.94h-.27c-.13,0-.17,0-.17-.17v-.38a1.89,1.89,0,0,1-1.4.63c-1.31,0-1.85-1.09-1.85-2.27a2.07,2.07,0,0,1,1.79-2.29h.2a1.62,1.62,0,0,1,1.23.56V76.68c0-.11,0-.16.12-.17l.33,0h0c.08,0,.1,0,.1.15v6.15c0,.1,0,.17-.1.17m-.48-3.29a1.41,1.41,0,0,0-1.19-.75c-.87,0-1.43.68-1.43,1.83s.51,1.83,1.34,1.83a1.64,1.64,0,0,0,1.28-.69Z" fill="#fff"/><path id="Path_360-2" data-name="Path 360" d="M345.16,82.94h-.28c-.11,0-.15-.06-.15-.17v-.32a2.12,2.12,0,0,1-1.43.57,1.4,1.4,0,0,1-1-.37,1.78,1.78,0,0,1-.41-1.29V78.71c0-.12,0-.17.15-.17h.29c.1,0,.15.06.15.17v2.57a1.48,1.48,0,0,0,.26,1,1,1,0,0,0,.74.27,2.09,2.09,0,0,0,1.28-.61V78.71c0-.12,0-.17.15-.17h.29c.1,0,.14.06.14.17v4.07c0,.1,0,.16-.14.16" fill="#fff"/><path id="Path_361-2" data-name="Path 361" d="M349.54,82.76a2.77,2.77,0,0,1-1.17.26c-1.44,0-2.09-1-2.09-2.3a2.08,2.08,0,0,1,1.88-2.26h.25a2.61,2.61,0,0,1,1.13.27c.06,0,.09.06.09.1a.64.64,0,0,1,0,.07l-.06.17s0,.1-.09.1l-.06,0a2.31,2.31,0,0,0-1-.25c-.91,0-1.51.71-1.51,1.81s.39,1.88,1.48,1.88a2.79,2.79,0,0,0,1.06-.22l.06,0a.1.1,0,0,1,.09.08l.05.17s0,0,0,.07,0,.07-.1.1" fill="#fff"/><path id="Path_362-2" data-name="Path 362" d="M352.5,82.88a2.36,2.36,0,0,1-.74.14,1.34,1.34,0,0,1-.94-.31,1.5,1.5,0,0,1-.27-1.14V79H350c-.08,0-.1,0-.1-.09v-.25c0-.08,0-.09.08-.09h.56V77.47c0-.11,0-.15.11-.17l.32,0h0c.07,0,.11,0,.11.14v1.13h1.1c.07,0,.1,0,.1.11v.23c0,.08,0,.09-.11.09h-1.09v2.7a1,1,0,0,0,.18.73.74.74,0,0,0,.53.17,2.13,2.13,0,0,0,.57-.1h.07c.06,0,.06,0,.07.06l0,.23v0s0,.07-.09.1" fill="#fff"/><path id="Path_363-2" data-name="Path 363" d="M357.07,83c-1.36,0-2-1-2-2.29a2.05,2.05,0,0,1,1.79-2.27h.23c1.37,0,2,1,2,2.28a2.05,2.05,0,0,1-1.8,2.27l-.24,0m.05-4.12c-1.08,0-1.42,1-1.42,1.81s.31,1.87,1.38,1.87,1.43-.92,1.43-1.83-.35-1.85-1.39-1.85" fill="#fff"/><path id="Path_364-2" data-name="Path 364" d="M362.53,76.68l-.06.24a.06.06,0,0,1-.06.06l-.08,0a1.63,1.63,0,0,0-.59-.11c-.66,0-.86.42-.86,1.25v.44h1.18c.08,0,.11,0,.11.09v.24c0,.08,0,.1-.1.1h-1.19v3.8c0,.11-.05.17-.15.17h-.29c-.1,0-.14-.06-.14-.17V79h-.56c-.06,0-.08,0-.08-.1v-.24c0-.07,0-.09.1-.09h.54v-.13a5.77,5.77,0,0,1,0-.72,1.31,1.31,0,0,1,1.31-1.3h.07a2.69,2.69,0,0,1,.74.14c.07,0,.1.06.1.11s0,0,0,0" fill="#fff"/></g></g></svg>