<svg xmlns="http://www.w3.org/2000/svg" width="44.279" height="53.203" viewBox="0 0 44.279 53.203"><defs><style>.a{fill:#56585a;}</style></defs><path class="a" d="M111.5,29.075c3.557,0,11.92-4.281,11.92-14.538,0-1.431-.035-2.813-.153-4.119a12.325,12.325,0,0,0-2.03-6.593C119.558,1.45,116.617,0,111.5,0s-8.054,1.45-9.735,3.824a12.322,12.322,0,0,0-2.032,6.595c-.118,1.306-.153,2.688-.153,4.118C99.583,24.794,107.946,29.075,111.5,29.075Zm3.891-23.749-.868,2.193a9.851,9.851,0,0,0-6.045,0l-.869-2.193A12.208,12.208,0,0,1,115.393,5.326Zm-14.037,6.988c.137.3.721,1.455,1.624,1.563,1.038.125,2.761-3.676,8.523-3.686,5.761.009,7.484,3.81,8.523,3.686.9-.108,1.486-1.263,1.624-1.563.028.736.038,1.481.038,2.224a12.962,12.962,0,0,1-4.071,9.843A10.41,10.41,0,0,1,111.5,27.34a10.41,10.41,0,0,1-6.113-2.959,12.962,12.962,0,0,1-4.071-9.843C101.318,13.795,101.328,13.049,101.356,12.313Z" transform="translate(-89.363)"/><path class="a" d="M74.533,204.3c-.609-3.784-1.861-8.658-4.374-10.39-1.716-1.183-7.7-4.382-10.26-5.748l-.043-.023a.835.835,0,0,0-.91.08,10.862,10.862,0,0,1-4.36,2.106.835.835,0,0,0-.6.519L52.4,195.02l-1.583-4.171a.835.835,0,0,0-.6-.519,10.861,10.861,0,0,1-4.36-2.106.836.836,0,0,0-.91-.08c-2.526,1.35-8.587,4.614-10.3,5.766-2.893,1.949-4.158,9-4.382,10.4a.839.839,0,0,0,.037.412c.061.173,1.018,2.651,5.8,4.644a2.377,2.377,0,0,1,1.057-.76,2.359,2.359,0,0,1-1.286-3.357,6.992,6.992,0,0,1,11.951-.542h9.13a7,7,0,0,1,5.8-3.1h0a7,7,0,0,1,6.139,3.627,2.359,2.359,0,0,1-1.277,3.36,2.373,2.373,0,0,1,1.072.77c4.772-1.991,5.728-4.465,5.789-4.638A.841.841,0,0,0,74.533,204.3Z" transform="translate(-30.265 -160.32)"/><path class="a" d="M109.618,300.814h0l-4.4.006a8.309,8.309,0,0,1-.005-3.854l4.4-.007a.3.3,0,0,0,.26-.44,4.932,4.932,0,0,0-8.9.548h-11.6a4.927,4.927,0,0,0-8.905-.533.3.3,0,0,0,.261.439h0l4.4-.007a8.309,8.309,0,0,1,.005,3.854l-4.4.007a.3.3,0,0,0-.26.44,4.934,4.934,0,0,0,4.323,2.557H84.8a4.931,4.931,0,0,0,4.573-3.105h11.6a4.939,4.939,0,0,0,4.576,3.1h.007a4.935,4.935,0,0,0,4.323-2.571.3.3,0,0,0-.261-.439Z" transform="translate(-73.032 -250.621)"/></svg>