<svg xmlns="http://www.w3.org/2000/svg" width="16.387" height="17.023" viewBox="0 0 16.387 17.023"><defs><style>.a{fill:#fff;}.b{fill:none;}</style></defs><g transform="translate(0 0.636)"><path class="a" d="M15.46,8.342,9.315,2.2a.68.68,0,0,0-.963,0L2.207,8.342a.68.68,0,0,0,0,.963L8.352,15.45a.68.68,0,0,0,.963,0L15.46,9.3a.68.68,0,0,0,0-.963ZM10.2,10.534V8.827H7.465v2.048H6.1V8.144a.685.685,0,0,1,.683-.683H10.2V5.754l2.39,2.39Z" transform="translate(-0.637 -2.634)"/><path class="b" d="M0,0H16.387V16.387H0Z"/></g></svg>