<svg xmlns="http://www.w3.org/2000/svg" width="86.771" height="61.011" viewBox="0 0 86.771 61.011"><defs><style>.a{fill:#56585a;}</style></defs><g transform="translate(0 -76)"><path class="a" d="M86.771,76H0v61.011H86.771Zm-5.084,55.927H5.084V81.084h76.6Z"/><path class="a" d="M105.422,143.626A7.635,7.635,0,0,0,97.8,136a7.628,7.628,0,1,0,0,15.253A7.635,7.635,0,0,0,105.422,143.626ZM97.8,146.169a2.547,2.547,0,1,1,0-5.084,2.542,2.542,0,0,1,0,5.084Z" transform="translate(-74.747 -49.831)"/><rect class="a" width="25.591" height="5.084" transform="translate(10.169 121.758)"/><path class="a" d="M85.591,238.711a12.8,12.8,0,0,0-25.591,0v2.542H85.591Zm-20.043-2.542a7.912,7.912,0,0,1,7.332-5.084,7.64,7.64,0,0,1,7.191,5.084Z" transform="translate(-49.831 -124.579)"/><rect class="a" width="15.422" height="5.084" transform="translate(40.844 86.169)"/><rect class="a" width="15.253" height="5.084" transform="translate(61.35 86.169)"/><rect class="a" width="25.591" height="5.084" transform="translate(40.844 101.421)"/><rect class="a" width="35.759" height="5.084" transform="translate(40.844 111.59)"/><rect class="a" width="35.759" height="5.084" transform="translate(40.844 121.758)"/></g></svg>