<svg xmlns="http://www.w3.org/2000/svg" width="55.969" height="55.969" viewBox="0 0 55.969 55.969"><defs><style>.a{fill:#56585a;}</style></defs><circle class="a" cx="2.733" cy="2.733" r="2.733" transform="translate(25.252 38.642)"/><path class="a" d="M27.984,0A27.984,27.984,0,1,0,55.969,27.984,27.969,27.969,0,0,0,27.984,0Zm0,51.6A23.612,23.612,0,1,1,51.6,27.984,23.6,23.6,0,0,1,27.984,51.6Z"/><path class="a" d="M184.745,128.5A8.755,8.755,0,0,0,176,137.245a2.186,2.186,0,0,0,4.373,0,4.373,4.373,0,1,1,4.373,4.373,2.186,2.186,0,0,0-2.186,2.186v5.466a2.186,2.186,0,0,0,4.373,0v-3.556a8.746,8.746,0,0,0-2.186-17.214Z" transform="translate(-156.761 -114.453)"/></svg>