<svg xmlns="http://www.w3.org/2000/svg" xmlns:xlink="http://www.w3.org/1999/xlink" width="77.843" height="25" viewBox="0 0 77.843 25"><defs><clipPath id="a"><rect width="76" height="20.498" fill="none"/></clipPath><linearGradient id="b" x1="0.428" y1="0.558" x2="1" y2="0.562" gradientUnits="objectBoundingBox"><stop offset="0" stop-color="#1e1e1e"/><stop offset="1" stop-color="#1e1e1e" stop-opacity="0"/></linearGradient></defs><g transform="translate(-1310 -263)"><g transform="translate(1310 265)" clip-path="url(#a)"><g transform="translate(-285 -526)"><path d="M748.909,512.7a54.687,54.687,0,0,1-1.583,6.264C746.56,521.11,746.006,521,746,521s-.56.11-1.326-2.034a54.687,54.687,0,0,1-1.583-6.264c-1.174-5.475-2.188-10.2-5.091-10.2v2.239c.006,0,.552.025,1.319,2.169a54.685,54.685,0,0,1,1.583,6.264c1.174,5.473,2.192,9.826,5.1,9.826s3.924-4.353,5.1-9.826a54.685,54.685,0,0,1,1.583-6.264c.767-2.144,1.313-2.169,1.319-2.169V502.5C751.1,502.5,750.083,507.227,748.909,512.7Z" transform="translate(-453 23.498)" fill="#d52b1e"/></g><g transform="translate(-269 -526)"><path d="M748.909,512.7a54.687,54.687,0,0,1-1.583,6.264C746.56,521.11,746.006,521,746,521s-.56.11-1.326-2.034a54.687,54.687,0,0,1-1.583-6.264c-1.174-5.475-2.188-10.2-5.091-10.2v2.239c.006,0,.552.025,1.319,2.169a54.685,54.685,0,0,1,1.583,6.264c1.174,5.473,2.192,9.826,5.1,9.826s3.924-4.353,5.1-9.826a54.685,54.685,0,0,1,1.583-6.264c.767-2.144,1.313-2.169,1.319-2.169V502.5C751.1,502.5,750.083,507.227,748.909,512.7Z" transform="translate(-453 23.498)" fill="#d52b1e"/></g><g transform="translate(-253 -526)"><path d="M748.909,512.7a54.687,54.687,0,0,1-1.583,6.264C746.56,521.11,746.006,521,746,521s-.56.11-1.326-2.034a54.687,54.687,0,0,1-1.583-6.264c-1.174-5.475-2.188-10.2-5.091-10.2v2.239c.006,0,.552.025,1.319,2.169a54.685,54.685,0,0,1,1.583,6.264c1.174,5.473,2.192,9.826,5.1,9.826s3.924-4.353,5.1-9.826a54.685,54.685,0,0,1,1.583-6.264c.767-2.144,1.313-2.169,1.319-2.169V502.5C751.1,502.5,750.083,507.227,748.909,512.7Z" transform="translate(-453 23.498)" fill="#d52b1e"/></g><g transform="translate(-237 -526)"><path d="M748.909,512.7a54.687,54.687,0,0,1-1.583,6.264C746.56,521.11,746.006,521,746,521s-.56.11-1.326-2.034a54.687,54.687,0,0,1-1.583-6.264c-1.174-5.475-2.188-10.2-5.091-10.2v2.239c.006,0,.552.025,1.319,2.169a54.685,54.685,0,0,1,1.583,6.264c1.174,5.473,2.192,9.826,5.1,9.826s3.924-4.353,5.1-9.826a54.685,54.685,0,0,1,1.583-6.264c.767-2.144,1.313-2.169,1.319-2.169V502.5C751.1,502.5,750.083,507.227,748.909,512.7Z" transform="translate(-453 23.498)" fill="#d52b1e"/></g><g transform="translate(-221 -526)"><path d="M748.909,512.7a54.687,54.687,0,0,1-1.583,6.264C746.56,521.11,746.006,521,746,521s-.56.11-1.326-2.034a54.687,54.687,0,0,1-1.583-6.264c-1.174-5.475-2.188-10.2-5.091-10.2v2.239c.006,0,.552.025,1.319,2.169a54.685,54.685,0,0,1,1.583,6.264c1.174,5.473,2.192,9.826,5.1,9.826s3.924-4.353,5.1-9.826a54.685,54.685,0,0,1,1.583-6.264c.767-2.144,1.313-2.169,1.319-2.169V502.5C751.1,502.5,750.083,507.227,748.909,512.7Z" transform="translate(-453 23.498)" fill="#d52b1e"/></g></g><rect width="14" height="25" transform="translate(1387.843 288) rotate(180)" fill="url(#b)"/></g></svg>