<svg id="Layer_1" data-name="Layer 1" xmlns="http://www.w3.org/2000/svg" viewBox="0 0 24 22"><title>MenuIcon_onBlack</title><g id="Menu_Icon" data-name="Menu Icon"><path id="Path_424" data-name="Path 424" d="M.39.26v2.1H23.6V.26Z" fill="#fff"/><path id="Path_424-2" data-name="Path 424-2" d="M.39,4.26v2.1H23.6V4.26Z" fill="#fff"/><path id="Path_424-3" data-name="Path 424-3" d="M.39,8.26v2.1H23.6V8.26Z" fill="#fff"/></g><g id="MENU" style="isolation:isolate"><g style="isolation:isolate"><path d="M4,20.35H3.13L1.78,16.16v5.5H.4v-9H1.81l1.73,5.22,1.75-5.22H6.76v9H5.32v-5.5Z" fill="#fff"/><path d="M8,21.66v-9h4V14H9.53v2.46h2.06v1.31H9.53v2.6H12v1.31Z" fill="#fff"/><path d="M13.08,21.66v-9h1.49l1.89,5.56V12.67h1.36v9H16.41l-2-5.85v5.85Z" fill="#fff"/><path d="M23.6,19.86c0,1.39-.87,1.9-2.23,1.9h-.06c-1.36,0-2.23-.5-2.23-1.9V12.67h1.49v7c0,.64.28.82.77.82s.77-.18.77-.82v-7H23.6Z" fill="#fff"/></g></g></svg>