<svg xmlns="http://www.w3.org/2000/svg" width="43.609" height="57.25" viewBox="0 0 43.609 57.25"><defs><style>.a{fill:#56585a;}</style></defs><g transform="translate(-61)"><path class="a" d="M89.513,3.355H87.549a5.032,5.032,0,0,0-9.489,0H76.1a1.677,1.677,0,0,0-1.677,1.677V6.709H62.677A1.677,1.677,0,0,0,61,8.386V55.573a1.677,1.677,0,0,0,1.677,1.677h40.254a1.677,1.677,0,0,0,1.677-1.677V8.386a1.677,1.677,0,0,0-1.677-1.677H91.191V5.032A1.677,1.677,0,0,0,89.513,3.355ZM77.773,6.709H79.45a1.677,1.677,0,0,0,1.677-1.677,1.677,1.677,0,0,1,3.355,0,1.677,1.677,0,0,0,1.677,1.677h1.677v3.355H77.773Zm23.482,3.355V53.9h-36.9V10.064H74.418v1.677A1.677,1.677,0,0,0,76.1,13.418H89.513a1.677,1.677,0,0,0,1.677-1.677V10.064Z" transform="translate(0)"/><path class="a" d="M181,151.677a1.677,1.677,0,0,0,1.677,1.677H202.8a1.677,1.677,0,0,0,0-3.355H182.677A1.677,1.677,0,0,0,181,151.677Z" transform="translate(-106.582 -133.227)"/><circle class="a" cx="1.677" cy="1.677" r="1.677" transform="translate(67.709 16.773)"/><path class="a" d="M202.8,210H182.677a1.677,1.677,0,0,0,0,3.355H202.8a1.677,1.677,0,0,0,0-3.355Z" transform="translate(-106.582 -186.518)"/><circle class="a" cx="1.677" cy="1.677" r="1.677" transform="translate(67.709 23.482)"/><path class="a" d="M202.8,270H182.677a1.677,1.677,0,0,0,0,3.354H202.8a1.677,1.677,0,0,0,0-3.354Z" transform="translate(-106.582 -239.809)"/><circle class="a" cx="1.677" cy="1.677" r="1.677" transform="translate(67.709 30.191)"/><path class="a" d="M149.513,330H122.677A1.677,1.677,0,0,0,121,331.677v10.287a1.677,1.677,0,0,0,1.677,1.677h26.836a1.677,1.677,0,0,0,1.677-1.677V331.677A1.677,1.677,0,0,0,149.513,330Zm-1.677,10.287H124.355v-6.933h23.482Z" transform="translate(-53.291 -293.1)"/></g></svg>