<svg xmlns="http://www.w3.org/2000/svg" width="62.535" height="86.336" viewBox="0 0 62.535 86.336">
  <g id="YAMAHA_LOCATION-PIN" transform="translate(0)">
    <path id="Path_325" data-name="Path 325" d="M101.841,0A31.3,31.3,0,0,0,70.573,31.267c0,21.4,27.981,52.808,29.173,54.134a2.816,2.816,0,0,0,4.19,0c1.191-1.327,29.173-32.738,29.173-54.134A31.3,31.3,0,0,0,101.841,0Z" transform="translate(-70.573)"/>
    <path id="Path_327" data-name="Path 327" d="M142.774,263.241h0l-.007.007.009-.007m11.471,0h0l.011.007Zm3.716-6.441,0,0,.007,0Zm-.992,1.719-3.01-1.737-1.735,1v2l3.01,1.739a1.735,1.735,0,0,0,1.735-3.005m-12.177,1.266v-2l-1.732-1-3.01,1.737a1.735,1.735,0,0,0,1.735,3.005Zm1.984-9.446,1.735,1,1.732-1v-3.476a1.734,1.734,0,1,0-3.467,0Zm3.467,6.3v-2l-1.735-1-1.732,1v2l1.732,1Zm17.977,10.241-4.982-5.322a2.477,2.477,0,0,1-3.442-1.982l0,.009a3.712,3.712,0,0,0-1.83-2.781l-2.02-1.166,9-5.2-.992-1.719-9.992,5.773-1.737-1v-2l9.994-5.775-.99-1.717-9,5.2v-2.33a3.712,3.712,0,0,0-1.492-2.98l.009,0a2.483,2.483,0,0,1,0-3.974l0,0-2.115-6.973a.142.142,0,0,0-.125-.125.124.124,0,0,0-.122.125l-2.115,6.977a2.478,2.478,0,0,1,0,3.974l.011,0a3.712,3.712,0,0,0-1.492,2.98v2.328l-9-5.2-.994,1.719,9.994,5.773v2l-1.732,1-9.994-5.773-.992,1.717,9,5.2-2.029,1.173.011-.007a3.712,3.712,0,0,0-1.834,2.783l0-.009a2.477,2.477,0,0,1-3.442,1.982l0,0-4.978,5.317a.144.144,0,0,0-.045.17.125.125,0,0,0,.17.045l7.1-1.658a2.479,2.479,0,0,1,3.438-1.991l-.007-.007a3.7,3.7,0,0,0,3.32-.195l2.02-1.166v10.4h1.984V260.929l1.735-1,1.732,1v11.55h1.982v-10.4l2.02,1.166a3.7,3.7,0,0,0,3.322.2l-.007.007A2.477,2.477,0,0,1,161,265.433l0,0,7.093,1.653a.145.145,0,0,0,.17-.045.125.125,0,0,0-.045-.17m.464.412a.492.492,0,0,1-.485.245l-3.313-.734a19.811,19.811,0,0,1-32.752,0l-3.311.731a.491.491,0,0,1-.489-.245.5.5,0,0,1,.029-.543l2.29-2.5a19.839,19.839,0,0,1,16.378-28.383l1.021-3.234a.494.494,0,0,1,.455-.3.5.5,0,0,1,.455.3l1.021,3.238a19.841,19.841,0,0,1,16.38,28.381l2.285,2.5a.5.5,0,0,1,.034.548" transform="translate(-117.253 -223.086)" fill="#fff"/>
  </g>
</svg>
