<?xml version="1.0" encoding="utf-8"?>
<!-- Generator: Adobe Illustrator 23.0.4, SVG Export Plug-In . SVG Version: 6.00 Build 0)  -->
<svg version="1.1" id="Layer_1" xmlns="http://www.w3.org/2000/svg" xmlns:xlink="http://www.w3.org/1999/xlink" x="0px" y="0px"
	 viewBox="0 0 86.5 86.5" style="enable-background:new 0 0 86.5 86.5;" xml:space="preserve">
<style type="text/css">
	.st0{fill:#D52B1E;}
	.st1{fill:#FFFFFF;}
	.st2{fill:#E50019;}
	.st3{fill:none;stroke:#D52B1E;stroke-width:0.907;stroke-miterlimit:3.864;}
</style>
<g id="Group_1263" transform="translate(-128 -1700)">
	<g id="Group_1262" transform="translate(0.024 0.056)">
		<path id="Path_484" class="st0" d="M128.1,1743.2c0-23.9,19.3-43.2,43.2-43.2s43.2,19.3,43.2,43.2s-19.3,43.2-43.2,43.2
			c0,0,0,0,0,0C147.4,1786.5,128.1,1767.1,128.1,1743.2"/>
		<path id="Path_485" class="st1" d="M130.8,1743.2c0-22.4,18.1-40.5,40.5-40.5c22.4,0,40.5,18.1,40.5,40.5
			c0,22.4-18.1,40.5-40.5,40.5c0,0,0,0,0,0C148.9,1783.8,130.8,1765.6,130.8,1743.2"/>
		<path id="Path_486" class="st0" d="M138.8,1743.2c0-17.9,14.5-32.4,32.4-32.4s32.4,14.5,32.4,32.4c0,17.9-14.5,32.4-32.4,32.4
			C153.4,1775.7,138.8,1761.2,138.8,1743.2C138.8,1743.2,138.8,1743.2,138.8,1743.2"/>
		<path id="Path_487" class="st2" d="M186.9,1755.9c-0.3,0.1-0.6,0.3-0.8,0.4c-1.7,0.6-3.5,0.4-5.1-0.5l-2.5-1.4v16.7h-3.3v-18.7
			l-3.1-1.8l-2.6,1.4v19h-3.3v-17.2l-4.1,2.3c-1.9,1.1-4.2,1-6.1,0c-1.4-0.4-3.9-0.5-5.4,3.5l-11.7,2.3l8.1-8.7
			c4.4,0.9,5.6-1.5,5.9-2.9c0-0.3,0.1-0.6,0.1-0.9c0.4-1.7,1.5-3.2,3.1-4.1l3.5-1.9l-15.1-8.7l1.7-2.9l16.9,9.7l3.2-1.8v-3
			l-17.2-9.9l1.7-2.9l15.5,9v-4c0-2.2,1.1-4.2,3-5.3c1-1,2.4-3.2-0.4-6.5l3.7-11.3l3.7,11.3c-2.9,3.4-1.4,5.6-0.3,6.5
			c1.8,1.1,2.9,3.1,2.8,5.2v4l14.4-8l1.6,2.9l-16,8.9v3.3l2.8,1.6l16-8.9l1.6,2.9l-14.2,7.9l2.5,1.4c1.9,1.1,3.1,3.1,3.1,5.2
			c0.4,1.4,1.6,3.6,5.8,2.9l8,8.8l-11.6-2.5C190.9,1755.2,188.2,1755.4,186.9,1755.9z M166.1,1747.1l-3.2-1.9l-5.5,3
			c-1.3,0.9-1.7,2.6-0.8,4c0.8,1.2,2.3,1.6,3.6,1l5.9-3.3L166.1,1747.1z M169.4,1745.2l2.6,1.5l3.1-1.7v-3.1l-3-1.8l-2.7,1.5V1745.2
			z M178.5,1750.5l4.3,2.5c1.4,0.8,3.1,0.3,3.9-1c0.8-1.4,0.3-3.1-1-3.9l0,0l-4.4-2.5l-2.8,1.5L178.5,1750.5z M169.4,1734.8l2.7,1.6
			l3-1.7v-6.1c-0.1-1.6-1.5-2.8-3.1-2.7c-1.4,0.1-2.6,1.2-2.7,2.7L169.4,1734.8z"/>
		<path id="Path_488" class="st3" d="M186.9,1755.9c-0.3,0.1-0.6,0.3-0.8,0.4c-1.7,0.6-3.5,0.4-5.1-0.5l-2.5-1.4v16.7h-3.3v-18.7
			l-3.1-1.8l-2.6,1.4v19h-3.3v-17.2l-4.1,2.3c-1.9,1.1-4.2,1-6.1,0c-1.4-0.4-3.9-0.5-5.4,3.5l-11.7,2.3l8.1-8.7
			c4.4,0.9,5.6-1.5,5.9-2.9c0-0.3,0.1-0.6,0.1-0.9c0.4-1.7,1.5-3.2,3.1-4.1l3.5-1.9l-15.1-8.7l1.7-2.9l16.9,9.7l3.2-1.8v-3
			l-17.2-9.9l1.7-2.9l15.5,9v-4c0-2.2,1.1-4.2,3-5.3c1-1,2.4-3.2-0.4-6.5l3.7-11.3l3.7,11.3c-2.9,3.4-1.4,5.6-0.3,6.5
			c1.8,1.1,2.9,3.1,2.8,5.2v4l14.4-8l1.6,2.9l-16,8.9v3.3l2.8,1.6l16-8.9l1.6,2.9l-14.2,7.9l2.5,1.4c1.9,1.1,3.1,3.1,3.1,5.2
			c0.4,1.4,1.6,3.6,5.8,2.9l8,8.8l-11.6-2.5C190.9,1755.2,188.2,1755.4,186.9,1755.9z M166.1,1747.1l-3.2-1.9l-5.5,3
			c-1.3,0.9-1.7,2.6-0.8,4c0.8,1.2,2.3,1.6,3.6,1l5.9-3.3L166.1,1747.1z M169.4,1745.2l2.6,1.5l3.1-1.7v-3.1l-3-1.8l-2.7,1.5V1745.2
			z M178.5,1750.5l4.3,2.5c1.4,0.8,3.1,0.3,3.9-1c0.8-1.4,0.3-3.1-1-3.9l0,0l-4.4-2.5l-2.8,1.5L178.5,1750.5z M169.4,1734.8l2.7,1.6
			l3-1.7v-6.1c-0.1-1.6-1.5-2.8-3.1-2.7c-1.4,0.1-2.6,1.2-2.7,2.7L169.4,1734.8z"/>
		<path id="Path_489" class="st1" d="M186.9,1755.9c-0.3,0.1-0.6,0.3-0.8,0.4c-1.7,0.6-3.5,0.4-5.1-0.5l-2.5-1.4v16.7h-3.3v-18.7
			l-3.1-1.8l-2.6,1.4v19h-3.3v-17.2l-4.1,2.3c-1.9,1.1-4.2,1-6.1,0c-1.4-0.4-3.9-0.5-5.4,3.5l-11.7,2.3l8.1-8.7
			c4.4,0.9,5.6-1.5,5.9-2.9c0-0.3,0.1-0.6,0.1-0.9c0.4-1.7,1.5-3.2,3.1-4.1l3.5-1.9l-15.1-8.7l1.7-2.9l16.9,9.7l3.2-1.8v-3
			l-17.2-9.9l1.7-2.9l15.5,9v-4c0-2.2,1.1-4.2,3-5.3c1-1,2.4-3.2-0.4-6.5l3.7-11.3l3.7,11.3c-2.9,3.4-1.4,5.6-0.3,6.5
			c1.8,1.1,2.9,3.1,2.8,5.2v4l14.4-8l1.6,2.9l-16,8.9v3.3l2.8,1.6l16-8.9l1.6,2.9l-14.2,7.9l2.5,1.4c1.9,1.1,3.1,3.1,3.1,5.2
			c0.4,1.4,1.6,3.6,5.8,2.9l8,8.8l-11.6-2.5C190.9,1755.2,188.2,1755.4,186.9,1755.9 M166.1,1747.1l-3.2-1.9l-5.5,3
			c-1.3,0.9-1.7,2.6-0.8,4c0.8,1.2,2.3,1.6,3.6,1l5.9-3.3L166.1,1747.1z M169.4,1745.2l2.6,1.5l3.1-1.7v-3.1l-3-1.8l-2.7,1.5V1745.2
			z M178.5,1750.4l4.3,2.5c1.4,0.8,3.1,0.3,3.9-1c0.8-1.4,0.3-3.1-1-3.9l-4.4-2.5l-2.8,1.5L178.5,1750.4z M169.4,1734.8l2.7,1.6
			l3-1.7v-6.1c-0.1-1.6-1.5-2.8-3.1-2.7c-1.4,0.1-2.6,1.2-2.7,2.7L169.4,1734.8z"/>
	</g>
</g>
</svg>
